G04 #@! TF.GenerationSoftware,KiCad,Pcbnew,(5.1.10)-1*
G04 #@! TF.CreationDate,2022-11-02T19:01:58+01:00*
G04 #@! TF.ProjectId,keyboard,6b657962-6f61-4726-942e-6b696361645f,rev?*
G04 #@! TF.SameCoordinates,Original*
G04 #@! TF.FileFunction,Soldermask,Bot*
G04 #@! TF.FilePolarity,Negative*
%FSLAX46Y46*%
G04 Gerber Fmt 4.6, Leading zero omitted, Abs format (unit mm)*
G04 Created by KiCad (PCBNEW (5.1.10)-1) date 2022-11-02 19:01:58*
%MOMM*%
%LPD*%
G01*
G04 APERTURE LIST*
%ADD10C,0.010000*%
%ADD11C,4.400000*%
%ADD12C,0.700000*%
%ADD13C,1.524000*%
%ADD14R,2.000000X2.000000*%
%ADD15C,2.000000*%
%ADD16R,2.000000X3.200000*%
%ADD17R,0.800000X0.900000*%
%ADD18C,0.100000*%
%ADD19O,1.700000X1.700000*%
%ADD20R,1.700000X1.700000*%
%ADD21C,1.750000*%
%ADD22C,2.250000*%
%ADD23C,3.987800*%
%ADD24C,3.048000*%
G04 APERTURE END LIST*
D10*
G36*
X125455000Y-93630000D02*
G01*
X125455000Y-90130000D01*
X128555000Y-90130000D01*
X128555000Y-93630000D01*
X125455000Y-93630000D01*
G37*
X125455000Y-93630000D02*
X125455000Y-90130000D01*
X128555000Y-90130000D01*
X128555000Y-93630000D01*
X125455000Y-93630000D01*
G36*
X91905000Y-76055000D02*
G01*
X95405000Y-76055000D01*
X95405000Y-79155000D01*
X91905000Y-79155000D01*
X91905000Y-76055000D01*
G37*
X91905000Y-76055000D02*
X95405000Y-76055000D01*
X95405000Y-79155000D01*
X91905000Y-79155000D01*
X91905000Y-76055000D01*
G36*
X91905000Y-95105000D02*
G01*
X95405000Y-95105000D01*
X95405000Y-98205000D01*
X91905000Y-98205000D01*
X91905000Y-95105000D01*
G37*
X91905000Y-95105000D02*
X95405000Y-95105000D01*
X95405000Y-98205000D01*
X91905000Y-98205000D01*
X91905000Y-95105000D01*
G36*
X125455000Y-131730000D02*
G01*
X125455000Y-128230000D01*
X128555000Y-128230000D01*
X128555000Y-131730000D01*
X125455000Y-131730000D01*
G37*
X125455000Y-131730000D02*
X125455000Y-128230000D01*
X128555000Y-128230000D01*
X128555000Y-131730000D01*
X125455000Y-131730000D01*
G36*
X110955000Y-133205000D02*
G01*
X114455000Y-133205000D01*
X114455000Y-136305000D01*
X110955000Y-136305000D01*
X110955000Y-133205000D01*
G37*
X110955000Y-133205000D02*
X114455000Y-133205000D01*
X114455000Y-136305000D01*
X110955000Y-136305000D01*
X110955000Y-133205000D01*
G36*
X82380000Y-133205000D02*
G01*
X85880000Y-133205000D01*
X85880000Y-136305000D01*
X82380000Y-136305000D01*
X82380000Y-133205000D01*
G37*
X82380000Y-133205000D02*
X85880000Y-133205000D01*
X85880000Y-136305000D01*
X82380000Y-136305000D01*
X82380000Y-133205000D01*
G36*
X110955000Y-114155000D02*
G01*
X114455000Y-114155000D01*
X114455000Y-117255000D01*
X110955000Y-117255000D01*
X110955000Y-114155000D01*
G37*
X110955000Y-114155000D02*
X114455000Y-114155000D01*
X114455000Y-117255000D01*
X110955000Y-117255000D01*
X110955000Y-114155000D01*
G36*
X91905000Y-114155000D02*
G01*
X95405000Y-114155000D01*
X95405000Y-117255000D01*
X91905000Y-117255000D01*
X91905000Y-114155000D01*
G37*
X91905000Y-114155000D02*
X95405000Y-114155000D01*
X95405000Y-117255000D01*
X91905000Y-117255000D01*
X91905000Y-114155000D01*
G36*
X72855000Y-114155000D02*
G01*
X76355000Y-114155000D01*
X76355000Y-117255000D01*
X72855000Y-117255000D01*
X72855000Y-114155000D01*
G37*
X72855000Y-114155000D02*
X76355000Y-114155000D01*
X76355000Y-117255000D01*
X72855000Y-117255000D01*
X72855000Y-114155000D01*
G36*
X110955000Y-95105000D02*
G01*
X114455000Y-95105000D01*
X114455000Y-98205000D01*
X110955000Y-98205000D01*
X110955000Y-95105000D01*
G37*
X110955000Y-95105000D02*
X114455000Y-95105000D01*
X114455000Y-98205000D01*
X110955000Y-98205000D01*
X110955000Y-95105000D01*
G36*
X72855000Y-95105000D02*
G01*
X76355000Y-95105000D01*
X76355000Y-98205000D01*
X72855000Y-98205000D01*
X72855000Y-95105000D01*
G37*
X72855000Y-95105000D02*
X76355000Y-95105000D01*
X76355000Y-98205000D01*
X72855000Y-98205000D01*
X72855000Y-95105000D01*
G36*
X110955000Y-76055000D02*
G01*
X114455000Y-76055000D01*
X114455000Y-79155000D01*
X110955000Y-79155000D01*
X110955000Y-76055000D01*
G37*
X110955000Y-76055000D02*
X114455000Y-76055000D01*
X114455000Y-79155000D01*
X110955000Y-79155000D01*
X110955000Y-76055000D01*
G36*
X72855000Y-76055000D02*
G01*
X76355000Y-76055000D01*
X76355000Y-79155000D01*
X72855000Y-79155000D01*
X72855000Y-76055000D01*
G37*
X72855000Y-76055000D02*
X76355000Y-76055000D01*
X76355000Y-79155000D01*
X72855000Y-79155000D01*
X72855000Y-76055000D01*
G36*
X110955000Y-57005000D02*
G01*
X114455000Y-57005000D01*
X114455000Y-60105000D01*
X110955000Y-60105000D01*
X110955000Y-57005000D01*
G37*
X110955000Y-57005000D02*
X114455000Y-57005000D01*
X114455000Y-60105000D01*
X110955000Y-60105000D01*
X110955000Y-57005000D01*
G36*
X91905000Y-57005000D02*
G01*
X95405000Y-57005000D01*
X95405000Y-60105000D01*
X91905000Y-60105000D01*
X91905000Y-57005000D01*
G37*
X91905000Y-57005000D02*
X95405000Y-57005000D01*
X95405000Y-60105000D01*
X91905000Y-60105000D01*
X91905000Y-57005000D01*
G36*
X72855000Y-57005000D02*
G01*
X76355000Y-57005000D01*
X76355000Y-60105000D01*
X72855000Y-60105000D01*
X72855000Y-57005000D01*
G37*
X72855000Y-57005000D02*
X76355000Y-57005000D01*
X76355000Y-60105000D01*
X72855000Y-60105000D01*
X72855000Y-57005000D01*
G36*
X130005000Y-57005000D02*
G01*
X133505000Y-57005000D01*
X133505000Y-60105000D01*
X130005000Y-60105000D01*
X130005000Y-57005000D01*
G37*
X130005000Y-57005000D02*
X133505000Y-57005000D01*
X133505000Y-60105000D01*
X130005000Y-60105000D01*
X130005000Y-57005000D01*
D11*
X69291200Y-110930000D03*
D12*
X70936000Y-110947200D03*
X70452726Y-112113926D03*
X69286000Y-112597200D03*
X68119274Y-112113926D03*
X67636000Y-110947200D03*
X68119274Y-109780474D03*
X69286000Y-109297200D03*
X70452726Y-109780474D03*
X85316926Y-65228874D03*
X84150200Y-64745600D03*
X82983474Y-65228874D03*
X82500200Y-66395600D03*
X82983474Y-67562326D03*
X84150200Y-68045600D03*
X85316926Y-67562326D03*
X85800200Y-66395600D03*
D11*
X84130000Y-66395600D03*
D12*
X101008926Y-138304674D03*
X99842200Y-137821400D03*
X98675474Y-138304674D03*
X98192200Y-139471400D03*
X98675474Y-140638126D03*
X99842200Y-141121400D03*
X101008926Y-140638126D03*
X101492200Y-139471400D03*
D11*
X99847400Y-139505000D03*
X131755000Y-114122200D03*
D12*
X133399800Y-114122200D03*
X132916526Y-115288926D03*
X131749800Y-115772200D03*
X130583074Y-115288926D03*
X130099800Y-114122200D03*
X130583074Y-112955474D03*
X131749800Y-112472200D03*
X132916526Y-112955474D03*
X132941926Y-74322074D03*
X131775200Y-73838800D03*
X130608474Y-74322074D03*
X130125200Y-75488800D03*
X130608474Y-76655526D03*
X131775200Y-77138800D03*
X132941926Y-76655526D03*
X133425200Y-75488800D03*
D11*
X131755000Y-75488800D03*
D13*
X146995000Y-122275000D03*
X149535000Y-122275000D03*
X152075000Y-122275000D03*
X154615000Y-122275000D03*
D14*
X148234400Y-80314800D03*
D15*
X150734400Y-80314800D03*
X153234400Y-80314800D03*
D16*
X145134400Y-72814800D03*
X156334400Y-72814800D03*
D15*
X148234400Y-65814800D03*
X153234400Y-65814800D03*
G36*
G01*
X100882000Y-71459100D02*
X100882000Y-70984100D01*
G75*
G02*
X101119500Y-70746600I237500J0D01*
G01*
X101619500Y-70746600D01*
G75*
G02*
X101857000Y-70984100I0J-237500D01*
G01*
X101857000Y-71459100D01*
G75*
G02*
X101619500Y-71696600I-237500J0D01*
G01*
X101119500Y-71696600D01*
G75*
G02*
X100882000Y-71459100I0J237500D01*
G01*
G37*
G36*
G01*
X99057000Y-71459100D02*
X99057000Y-70984100D01*
G75*
G02*
X99294500Y-70746600I237500J0D01*
G01*
X99794500Y-70746600D01*
G75*
G02*
X100032000Y-70984100I0J-237500D01*
G01*
X100032000Y-71459100D01*
G75*
G02*
X99794500Y-71696600I-237500J0D01*
G01*
X99294500Y-71696600D01*
G75*
G02*
X99057000Y-71459100I0J237500D01*
G01*
G37*
G36*
G01*
X108998200Y-70984100D02*
X108998200Y-71459100D01*
G75*
G02*
X108760700Y-71696600I-237500J0D01*
G01*
X108260700Y-71696600D01*
G75*
G02*
X108023200Y-71459100I0J237500D01*
G01*
X108023200Y-70984100D01*
G75*
G02*
X108260700Y-70746600I237500J0D01*
G01*
X108760700Y-70746600D01*
G75*
G02*
X108998200Y-70984100I0J-237500D01*
G01*
G37*
G36*
G01*
X110823200Y-70984100D02*
X110823200Y-71459100D01*
G75*
G02*
X110585700Y-71696600I-237500J0D01*
G01*
X110085700Y-71696600D01*
G75*
G02*
X109848200Y-71459100I0J237500D01*
G01*
X109848200Y-70984100D01*
G75*
G02*
X110085700Y-70746600I237500J0D01*
G01*
X110585700Y-70746600D01*
G75*
G02*
X110823200Y-70984100I0J-237500D01*
G01*
G37*
D17*
X104841000Y-69221600D03*
X103891000Y-71221600D03*
X105791000Y-71221600D03*
D18*
G36*
X125844510Y-88479902D02*
G01*
X125844538Y-88479809D01*
X125844584Y-88479722D01*
X125844646Y-88479646D01*
X125844722Y-88479584D01*
X125844809Y-88479538D01*
X125844902Y-88479510D01*
X125845000Y-88479500D01*
X126665000Y-88479500D01*
X126665098Y-88479510D01*
X126665191Y-88479538D01*
X126665278Y-88479584D01*
X126665354Y-88479646D01*
X126665416Y-88479722D01*
X126665462Y-88479809D01*
X126665490Y-88479902D01*
X126665500Y-88480000D01*
X126665500Y-90026000D01*
X126665490Y-90026098D01*
X126665462Y-90026191D01*
X126665416Y-90026278D01*
X126665354Y-90026354D01*
X126665278Y-90026416D01*
X126665191Y-90026462D01*
X126665098Y-90026490D01*
X126665000Y-90026500D01*
X125845000Y-90026500D01*
X125844902Y-90026490D01*
X125844809Y-90026462D01*
X125844722Y-90026416D01*
X125844646Y-90026354D01*
X125844584Y-90026278D01*
X125844538Y-90026191D01*
X125844510Y-90026098D01*
X125844500Y-90026000D01*
X125844500Y-88480000D01*
X125844510Y-88479902D01*
G37*
G36*
X127344510Y-88479902D02*
G01*
X127344538Y-88479809D01*
X127344584Y-88479722D01*
X127344646Y-88479646D01*
X127344722Y-88479584D01*
X127344809Y-88479538D01*
X127344902Y-88479510D01*
X127345000Y-88479500D01*
X128165190Y-88479500D01*
X128165288Y-88479510D01*
X128165381Y-88479538D01*
X128165468Y-88479584D01*
X128165544Y-88479646D01*
X128165606Y-88479722D01*
X128165652Y-88479809D01*
X128165680Y-88479902D01*
X128165690Y-88480000D01*
X128165500Y-90026000D01*
X128165490Y-90026098D01*
X128165462Y-90026191D01*
X128165416Y-90026278D01*
X128165354Y-90026354D01*
X128165278Y-90026416D01*
X128165191Y-90026462D01*
X128165097Y-90026490D01*
X128165000Y-90026500D01*
X127345000Y-90026500D01*
X127344902Y-90026490D01*
X127344809Y-90026462D01*
X127344722Y-90026416D01*
X127344646Y-90026354D01*
X127344584Y-90026278D01*
X127344538Y-90026191D01*
X127344510Y-90026098D01*
X127344500Y-90026000D01*
X127344500Y-88480000D01*
X127344510Y-88479902D01*
G37*
G36*
X127344510Y-93733902D02*
G01*
X127344538Y-93733809D01*
X127344584Y-93733722D01*
X127344646Y-93733646D01*
X127344722Y-93733584D01*
X127344809Y-93733538D01*
X127344902Y-93733510D01*
X127345000Y-93733500D01*
X128165000Y-93733500D01*
X128165098Y-93733510D01*
X128165191Y-93733538D01*
X128165278Y-93733584D01*
X128165354Y-93733646D01*
X128165416Y-93733722D01*
X128165462Y-93733809D01*
X128165490Y-93733902D01*
X128165500Y-93734000D01*
X128165500Y-95280000D01*
X128165490Y-95280098D01*
X128165462Y-95280191D01*
X128165416Y-95280278D01*
X128165354Y-95280354D01*
X128165278Y-95280416D01*
X128165191Y-95280462D01*
X128165098Y-95280490D01*
X128165000Y-95280500D01*
X127345000Y-95280500D01*
X127344902Y-95280490D01*
X127344809Y-95280462D01*
X127344722Y-95280416D01*
X127344646Y-95280354D01*
X127344584Y-95280278D01*
X127344538Y-95280191D01*
X127344510Y-95280098D01*
X127344500Y-95280000D01*
X127344500Y-93734000D01*
X127344510Y-93733902D01*
G37*
G36*
X125844510Y-93733902D02*
G01*
X125844538Y-93733809D01*
X125844584Y-93733722D01*
X125844646Y-93733646D01*
X125844722Y-93733584D01*
X125844809Y-93733538D01*
X125844902Y-93733510D01*
X125845000Y-93733500D01*
X126665000Y-93733500D01*
X126665098Y-93733510D01*
X126665191Y-93733538D01*
X126665278Y-93733584D01*
X126665354Y-93733646D01*
X126665416Y-93733722D01*
X126665462Y-93733809D01*
X126665490Y-93733902D01*
X126665500Y-93734000D01*
X126665500Y-95280000D01*
X126665490Y-95280098D01*
X126665462Y-95280191D01*
X126665416Y-95280278D01*
X126665354Y-95280354D01*
X126665278Y-95280416D01*
X126665191Y-95280462D01*
X126665098Y-95280490D01*
X126665000Y-95280500D01*
X125845000Y-95280500D01*
X125844902Y-95280490D01*
X125844809Y-95280462D01*
X125844722Y-95280416D01*
X125844646Y-95280354D01*
X125844584Y-95280278D01*
X125844538Y-95280191D01*
X125844510Y-95280098D01*
X125844500Y-95280000D01*
X125844500Y-93734000D01*
X125844510Y-93733902D01*
G37*
G36*
G01*
X131992500Y-68955000D02*
X131517500Y-68955000D01*
G75*
G02*
X131280000Y-68717500I0J237500D01*
G01*
X131280000Y-68142500D01*
G75*
G02*
X131517500Y-67905000I237500J0D01*
G01*
X131992500Y-67905000D01*
G75*
G02*
X132230000Y-68142500I0J-237500D01*
G01*
X132230000Y-68717500D01*
G75*
G02*
X131992500Y-68955000I-237500J0D01*
G01*
G37*
G36*
G01*
X131992500Y-70705000D02*
X131517500Y-70705000D01*
G75*
G02*
X131280000Y-70467500I0J237500D01*
G01*
X131280000Y-69892500D01*
G75*
G02*
X131517500Y-69655000I237500J0D01*
G01*
X131992500Y-69655000D01*
G75*
G02*
X132230000Y-69892500I0J-237500D01*
G01*
X132230000Y-70467500D01*
G75*
G02*
X131992500Y-70705000I-237500J0D01*
G01*
G37*
G36*
G01*
X112942500Y-68955000D02*
X112467500Y-68955000D01*
G75*
G02*
X112230000Y-68717500I0J237500D01*
G01*
X112230000Y-68142500D01*
G75*
G02*
X112467500Y-67905000I237500J0D01*
G01*
X112942500Y-67905000D01*
G75*
G02*
X113180000Y-68142500I0J-237500D01*
G01*
X113180000Y-68717500D01*
G75*
G02*
X112942500Y-68955000I-237500J0D01*
G01*
G37*
G36*
G01*
X112942500Y-70705000D02*
X112467500Y-70705000D01*
G75*
G02*
X112230000Y-70467500I0J237500D01*
G01*
X112230000Y-69892500D01*
G75*
G02*
X112467500Y-69655000I237500J0D01*
G01*
X112942500Y-69655000D01*
G75*
G02*
X113180000Y-69892500I0J-237500D01*
G01*
X113180000Y-70467500D01*
G75*
G02*
X112942500Y-70705000I-237500J0D01*
G01*
G37*
G36*
G01*
X93892500Y-68955000D02*
X93417500Y-68955000D01*
G75*
G02*
X93180000Y-68717500I0J237500D01*
G01*
X93180000Y-68142500D01*
G75*
G02*
X93417500Y-67905000I237500J0D01*
G01*
X93892500Y-67905000D01*
G75*
G02*
X94130000Y-68142500I0J-237500D01*
G01*
X94130000Y-68717500D01*
G75*
G02*
X93892500Y-68955000I-237500J0D01*
G01*
G37*
G36*
G01*
X93892500Y-70705000D02*
X93417500Y-70705000D01*
G75*
G02*
X93180000Y-70467500I0J237500D01*
G01*
X93180000Y-69892500D01*
G75*
G02*
X93417500Y-69655000I237500J0D01*
G01*
X93892500Y-69655000D01*
G75*
G02*
X94130000Y-69892500I0J-237500D01*
G01*
X94130000Y-70467500D01*
G75*
G02*
X93892500Y-70705000I-237500J0D01*
G01*
G37*
G36*
G01*
X74842500Y-68955000D02*
X74367500Y-68955000D01*
G75*
G02*
X74130000Y-68717500I0J237500D01*
G01*
X74130000Y-68142500D01*
G75*
G02*
X74367500Y-67905000I237500J0D01*
G01*
X74842500Y-67905000D01*
G75*
G02*
X75080000Y-68142500I0J-237500D01*
G01*
X75080000Y-68717500D01*
G75*
G02*
X74842500Y-68955000I-237500J0D01*
G01*
G37*
G36*
G01*
X74842500Y-70705000D02*
X74367500Y-70705000D01*
G75*
G02*
X74130000Y-70467500I0J237500D01*
G01*
X74130000Y-69892500D01*
G75*
G02*
X74367500Y-69655000I237500J0D01*
G01*
X74842500Y-69655000D01*
G75*
G02*
X75080000Y-69892500I0J-237500D01*
G01*
X75080000Y-70467500D01*
G75*
G02*
X74842500Y-70705000I-237500J0D01*
G01*
G37*
G36*
G01*
X112942500Y-145155000D02*
X112467500Y-145155000D01*
G75*
G02*
X112230000Y-144917500I0J237500D01*
G01*
X112230000Y-144342500D01*
G75*
G02*
X112467500Y-144105000I237500J0D01*
G01*
X112942500Y-144105000D01*
G75*
G02*
X113180000Y-144342500I0J-237500D01*
G01*
X113180000Y-144917500D01*
G75*
G02*
X112942500Y-145155000I-237500J0D01*
G01*
G37*
G36*
G01*
X112942500Y-146905000D02*
X112467500Y-146905000D01*
G75*
G02*
X112230000Y-146667500I0J237500D01*
G01*
X112230000Y-146092500D01*
G75*
G02*
X112467500Y-145855000I237500J0D01*
G01*
X112942500Y-145855000D01*
G75*
G02*
X113180000Y-146092500I0J-237500D01*
G01*
X113180000Y-146667500D01*
G75*
G02*
X112942500Y-146905000I-237500J0D01*
G01*
G37*
G36*
G01*
X84367500Y-145155000D02*
X83892500Y-145155000D01*
G75*
G02*
X83655000Y-144917500I0J237500D01*
G01*
X83655000Y-144342500D01*
G75*
G02*
X83892500Y-144105000I237500J0D01*
G01*
X84367500Y-144105000D01*
G75*
G02*
X84605000Y-144342500I0J-237500D01*
G01*
X84605000Y-144917500D01*
G75*
G02*
X84367500Y-145155000I-237500J0D01*
G01*
G37*
G36*
G01*
X84367500Y-146905000D02*
X83892500Y-146905000D01*
G75*
G02*
X83655000Y-146667500I0J237500D01*
G01*
X83655000Y-146092500D01*
G75*
G02*
X83892500Y-145855000I237500J0D01*
G01*
X84367500Y-145855000D01*
G75*
G02*
X84605000Y-146092500I0J-237500D01*
G01*
X84605000Y-146667500D01*
G75*
G02*
X84367500Y-146905000I-237500J0D01*
G01*
G37*
G36*
G01*
X131992500Y-145155000D02*
X131517500Y-145155000D01*
G75*
G02*
X131280000Y-144917500I0J237500D01*
G01*
X131280000Y-144342500D01*
G75*
G02*
X131517500Y-144105000I237500J0D01*
G01*
X131992500Y-144105000D01*
G75*
G02*
X132230000Y-144342500I0J-237500D01*
G01*
X132230000Y-144917500D01*
G75*
G02*
X131992500Y-145155000I-237500J0D01*
G01*
G37*
G36*
G01*
X131992500Y-146905000D02*
X131517500Y-146905000D01*
G75*
G02*
X131280000Y-146667500I0J237500D01*
G01*
X131280000Y-146092500D01*
G75*
G02*
X131517500Y-145855000I237500J0D01*
G01*
X131992500Y-145855000D01*
G75*
G02*
X132230000Y-146092500I0J-237500D01*
G01*
X132230000Y-146667500D01*
G75*
G02*
X131992500Y-146905000I-237500J0D01*
G01*
G37*
G36*
G01*
X112942500Y-126105000D02*
X112467500Y-126105000D01*
G75*
G02*
X112230000Y-125867500I0J237500D01*
G01*
X112230000Y-125292500D01*
G75*
G02*
X112467500Y-125055000I237500J0D01*
G01*
X112942500Y-125055000D01*
G75*
G02*
X113180000Y-125292500I0J-237500D01*
G01*
X113180000Y-125867500D01*
G75*
G02*
X112942500Y-126105000I-237500J0D01*
G01*
G37*
G36*
G01*
X112942500Y-127855000D02*
X112467500Y-127855000D01*
G75*
G02*
X112230000Y-127617500I0J237500D01*
G01*
X112230000Y-127042500D01*
G75*
G02*
X112467500Y-126805000I237500J0D01*
G01*
X112942500Y-126805000D01*
G75*
G02*
X113180000Y-127042500I0J-237500D01*
G01*
X113180000Y-127617500D01*
G75*
G02*
X112942500Y-127855000I-237500J0D01*
G01*
G37*
G36*
G01*
X93892500Y-126105000D02*
X93417500Y-126105000D01*
G75*
G02*
X93180000Y-125867500I0J237500D01*
G01*
X93180000Y-125292500D01*
G75*
G02*
X93417500Y-125055000I237500J0D01*
G01*
X93892500Y-125055000D01*
G75*
G02*
X94130000Y-125292500I0J-237500D01*
G01*
X94130000Y-125867500D01*
G75*
G02*
X93892500Y-126105000I-237500J0D01*
G01*
G37*
G36*
G01*
X93892500Y-127855000D02*
X93417500Y-127855000D01*
G75*
G02*
X93180000Y-127617500I0J237500D01*
G01*
X93180000Y-127042500D01*
G75*
G02*
X93417500Y-126805000I237500J0D01*
G01*
X93892500Y-126805000D01*
G75*
G02*
X94130000Y-127042500I0J-237500D01*
G01*
X94130000Y-127617500D01*
G75*
G02*
X93892500Y-127855000I-237500J0D01*
G01*
G37*
G36*
G01*
X74842500Y-126105000D02*
X74367500Y-126105000D01*
G75*
G02*
X74130000Y-125867500I0J237500D01*
G01*
X74130000Y-125292500D01*
G75*
G02*
X74367500Y-125055000I237500J0D01*
G01*
X74842500Y-125055000D01*
G75*
G02*
X75080000Y-125292500I0J-237500D01*
G01*
X75080000Y-125867500D01*
G75*
G02*
X74842500Y-126105000I-237500J0D01*
G01*
G37*
G36*
G01*
X74842500Y-127855000D02*
X74367500Y-127855000D01*
G75*
G02*
X74130000Y-127617500I0J237500D01*
G01*
X74130000Y-127042500D01*
G75*
G02*
X74367500Y-126805000I237500J0D01*
G01*
X74842500Y-126805000D01*
G75*
G02*
X75080000Y-127042500I0J-237500D01*
G01*
X75080000Y-127617500D01*
G75*
G02*
X74842500Y-127855000I-237500J0D01*
G01*
G37*
G36*
G01*
X112942500Y-107055000D02*
X112467500Y-107055000D01*
G75*
G02*
X112230000Y-106817500I0J237500D01*
G01*
X112230000Y-106242500D01*
G75*
G02*
X112467500Y-106005000I237500J0D01*
G01*
X112942500Y-106005000D01*
G75*
G02*
X113180000Y-106242500I0J-237500D01*
G01*
X113180000Y-106817500D01*
G75*
G02*
X112942500Y-107055000I-237500J0D01*
G01*
G37*
G36*
G01*
X112942500Y-108805000D02*
X112467500Y-108805000D01*
G75*
G02*
X112230000Y-108567500I0J237500D01*
G01*
X112230000Y-107992500D01*
G75*
G02*
X112467500Y-107755000I237500J0D01*
G01*
X112942500Y-107755000D01*
G75*
G02*
X113180000Y-107992500I0J-237500D01*
G01*
X113180000Y-108567500D01*
G75*
G02*
X112942500Y-108805000I-237500J0D01*
G01*
G37*
G36*
G01*
X93892500Y-107055000D02*
X93417500Y-107055000D01*
G75*
G02*
X93180000Y-106817500I0J237500D01*
G01*
X93180000Y-106242500D01*
G75*
G02*
X93417500Y-106005000I237500J0D01*
G01*
X93892500Y-106005000D01*
G75*
G02*
X94130000Y-106242500I0J-237500D01*
G01*
X94130000Y-106817500D01*
G75*
G02*
X93892500Y-107055000I-237500J0D01*
G01*
G37*
G36*
G01*
X93892500Y-108805000D02*
X93417500Y-108805000D01*
G75*
G02*
X93180000Y-108567500I0J237500D01*
G01*
X93180000Y-107992500D01*
G75*
G02*
X93417500Y-107755000I237500J0D01*
G01*
X93892500Y-107755000D01*
G75*
G02*
X94130000Y-107992500I0J-237500D01*
G01*
X94130000Y-108567500D01*
G75*
G02*
X93892500Y-108805000I-237500J0D01*
G01*
G37*
G36*
G01*
X74842500Y-107055000D02*
X74367500Y-107055000D01*
G75*
G02*
X74130000Y-106817500I0J237500D01*
G01*
X74130000Y-106242500D01*
G75*
G02*
X74367500Y-106005000I237500J0D01*
G01*
X74842500Y-106005000D01*
G75*
G02*
X75080000Y-106242500I0J-237500D01*
G01*
X75080000Y-106817500D01*
G75*
G02*
X74842500Y-107055000I-237500J0D01*
G01*
G37*
G36*
G01*
X74842500Y-108805000D02*
X74367500Y-108805000D01*
G75*
G02*
X74130000Y-108567500I0J237500D01*
G01*
X74130000Y-107992500D01*
G75*
G02*
X74367500Y-107755000I237500J0D01*
G01*
X74842500Y-107755000D01*
G75*
G02*
X75080000Y-107992500I0J-237500D01*
G01*
X75080000Y-108567500D01*
G75*
G02*
X74842500Y-108805000I-237500J0D01*
G01*
G37*
G36*
G01*
X131992500Y-107055000D02*
X131517500Y-107055000D01*
G75*
G02*
X131280000Y-106817500I0J237500D01*
G01*
X131280000Y-106242500D01*
G75*
G02*
X131517500Y-106005000I237500J0D01*
G01*
X131992500Y-106005000D01*
G75*
G02*
X132230000Y-106242500I0J-237500D01*
G01*
X132230000Y-106817500D01*
G75*
G02*
X131992500Y-107055000I-237500J0D01*
G01*
G37*
G36*
G01*
X131992500Y-108805000D02*
X131517500Y-108805000D01*
G75*
G02*
X131280000Y-108567500I0J237500D01*
G01*
X131280000Y-107992500D01*
G75*
G02*
X131517500Y-107755000I237500J0D01*
G01*
X131992500Y-107755000D01*
G75*
G02*
X132230000Y-107992500I0J-237500D01*
G01*
X132230000Y-108567500D01*
G75*
G02*
X131992500Y-108805000I-237500J0D01*
G01*
G37*
G36*
G01*
X112942500Y-88005000D02*
X112467500Y-88005000D01*
G75*
G02*
X112230000Y-87767500I0J237500D01*
G01*
X112230000Y-87192500D01*
G75*
G02*
X112467500Y-86955000I237500J0D01*
G01*
X112942500Y-86955000D01*
G75*
G02*
X113180000Y-87192500I0J-237500D01*
G01*
X113180000Y-87767500D01*
G75*
G02*
X112942500Y-88005000I-237500J0D01*
G01*
G37*
G36*
G01*
X112942500Y-89755000D02*
X112467500Y-89755000D01*
G75*
G02*
X112230000Y-89517500I0J237500D01*
G01*
X112230000Y-88942500D01*
G75*
G02*
X112467500Y-88705000I237500J0D01*
G01*
X112942500Y-88705000D01*
G75*
G02*
X113180000Y-88942500I0J-237500D01*
G01*
X113180000Y-89517500D01*
G75*
G02*
X112942500Y-89755000I-237500J0D01*
G01*
G37*
G36*
G01*
X93892500Y-88005000D02*
X93417500Y-88005000D01*
G75*
G02*
X93180000Y-87767500I0J237500D01*
G01*
X93180000Y-87192500D01*
G75*
G02*
X93417500Y-86955000I237500J0D01*
G01*
X93892500Y-86955000D01*
G75*
G02*
X94130000Y-87192500I0J-237500D01*
G01*
X94130000Y-87767500D01*
G75*
G02*
X93892500Y-88005000I-237500J0D01*
G01*
G37*
G36*
G01*
X93892500Y-89755000D02*
X93417500Y-89755000D01*
G75*
G02*
X93180000Y-89517500I0J237500D01*
G01*
X93180000Y-88942500D01*
G75*
G02*
X93417500Y-88705000I237500J0D01*
G01*
X93892500Y-88705000D01*
G75*
G02*
X94130000Y-88942500I0J-237500D01*
G01*
X94130000Y-89517500D01*
G75*
G02*
X93892500Y-89755000I-237500J0D01*
G01*
G37*
G36*
G01*
X74887500Y-87900000D02*
X74412500Y-87900000D01*
G75*
G02*
X74175000Y-87662500I0J237500D01*
G01*
X74175000Y-87087500D01*
G75*
G02*
X74412500Y-86850000I237500J0D01*
G01*
X74887500Y-86850000D01*
G75*
G02*
X75125000Y-87087500I0J-237500D01*
G01*
X75125000Y-87662500D01*
G75*
G02*
X74887500Y-87900000I-237500J0D01*
G01*
G37*
G36*
G01*
X74887500Y-89650000D02*
X74412500Y-89650000D01*
G75*
G02*
X74175000Y-89412500I0J237500D01*
G01*
X74175000Y-88837500D01*
G75*
G02*
X74412500Y-88600000I237500J0D01*
G01*
X74887500Y-88600000D01*
G75*
G02*
X75125000Y-88837500I0J-237500D01*
G01*
X75125000Y-89412500D01*
G75*
G02*
X74887500Y-89650000I-237500J0D01*
G01*
G37*
D19*
X68125000Y-74075000D03*
X101145000Y-74075000D03*
X96065000Y-91855000D03*
X116385000Y-74075000D03*
X78285000Y-91855000D03*
X78285000Y-74075000D03*
X90985000Y-91855000D03*
X90985000Y-74075000D03*
X93525000Y-74075000D03*
X113845000Y-74075000D03*
D20*
X98605000Y-74075000D03*
X73205000Y-91855000D03*
D19*
X103685000Y-74075000D03*
D20*
X73205000Y-74075000D03*
D19*
X80825000Y-91855000D03*
X88445000Y-91855000D03*
D20*
X98605000Y-91855000D03*
D19*
X101145000Y-91855000D03*
X106225000Y-74075000D03*
X80825000Y-74075000D03*
D20*
X111305000Y-74075000D03*
D19*
X108765000Y-74075000D03*
X88445000Y-74075000D03*
D20*
X85905000Y-74075000D03*
D19*
X75745000Y-74075000D03*
X70665000Y-91855000D03*
X75745000Y-91855000D03*
X96065000Y-74075000D03*
X83365000Y-91855000D03*
X93525000Y-91855000D03*
X83365000Y-74075000D03*
X68125000Y-91855000D03*
D20*
X85905000Y-91855000D03*
D19*
X70665000Y-74075000D03*
X113845000Y-91855000D03*
D20*
X111305000Y-91855000D03*
D19*
X108765000Y-91855000D03*
X103685000Y-91855000D03*
X106225000Y-91855000D03*
X116385000Y-91855000D03*
G36*
G01*
X106467500Y-135080000D02*
X106942500Y-135080000D01*
G75*
G02*
X107180000Y-135317500I0J-237500D01*
G01*
X107180000Y-135917500D01*
G75*
G02*
X106942500Y-136155000I-237500J0D01*
G01*
X106467500Y-136155000D01*
G75*
G02*
X106230000Y-135917500I0J237500D01*
G01*
X106230000Y-135317500D01*
G75*
G02*
X106467500Y-135080000I237500J0D01*
G01*
G37*
G36*
G01*
X106467500Y-133355000D02*
X106942500Y-133355000D01*
G75*
G02*
X107180000Y-133592500I0J-237500D01*
G01*
X107180000Y-134192500D01*
G75*
G02*
X106942500Y-134430000I-237500J0D01*
G01*
X106467500Y-134430000D01*
G75*
G02*
X106230000Y-134192500I0J237500D01*
G01*
X106230000Y-133592500D01*
G75*
G02*
X106467500Y-133355000I237500J0D01*
G01*
G37*
G36*
G01*
X77892500Y-135080000D02*
X78367500Y-135080000D01*
G75*
G02*
X78605000Y-135317500I0J-237500D01*
G01*
X78605000Y-135917500D01*
G75*
G02*
X78367500Y-136155000I-237500J0D01*
G01*
X77892500Y-136155000D01*
G75*
G02*
X77655000Y-135917500I0J237500D01*
G01*
X77655000Y-135317500D01*
G75*
G02*
X77892500Y-135080000I237500J0D01*
G01*
G37*
G36*
G01*
X77892500Y-133355000D02*
X78367500Y-133355000D01*
G75*
G02*
X78605000Y-133592500I0J-237500D01*
G01*
X78605000Y-134192500D01*
G75*
G02*
X78367500Y-134430000I-237500J0D01*
G01*
X77892500Y-134430000D01*
G75*
G02*
X77655000Y-134192500I0J237500D01*
G01*
X77655000Y-133592500D01*
G75*
G02*
X77892500Y-133355000I237500J0D01*
G01*
G37*
G36*
G01*
X127330000Y-136217500D02*
X127330000Y-135742500D01*
G75*
G02*
X127567500Y-135505000I237500J0D01*
G01*
X128167500Y-135505000D01*
G75*
G02*
X128405000Y-135742500I0J-237500D01*
G01*
X128405000Y-136217500D01*
G75*
G02*
X128167500Y-136455000I-237500J0D01*
G01*
X127567500Y-136455000D01*
G75*
G02*
X127330000Y-136217500I0J237500D01*
G01*
G37*
G36*
G01*
X125605000Y-136217500D02*
X125605000Y-135742500D01*
G75*
G02*
X125842500Y-135505000I237500J0D01*
G01*
X126442500Y-135505000D01*
G75*
G02*
X126680000Y-135742500I0J-237500D01*
G01*
X126680000Y-136217500D01*
G75*
G02*
X126442500Y-136455000I-237500J0D01*
G01*
X125842500Y-136455000D01*
G75*
G02*
X125605000Y-136217500I0J237500D01*
G01*
G37*
G36*
G01*
X106467500Y-116030000D02*
X106942500Y-116030000D01*
G75*
G02*
X107180000Y-116267500I0J-237500D01*
G01*
X107180000Y-116867500D01*
G75*
G02*
X106942500Y-117105000I-237500J0D01*
G01*
X106467500Y-117105000D01*
G75*
G02*
X106230000Y-116867500I0J237500D01*
G01*
X106230000Y-116267500D01*
G75*
G02*
X106467500Y-116030000I237500J0D01*
G01*
G37*
G36*
G01*
X106467500Y-114305000D02*
X106942500Y-114305000D01*
G75*
G02*
X107180000Y-114542500I0J-237500D01*
G01*
X107180000Y-115142500D01*
G75*
G02*
X106942500Y-115380000I-237500J0D01*
G01*
X106467500Y-115380000D01*
G75*
G02*
X106230000Y-115142500I0J237500D01*
G01*
X106230000Y-114542500D01*
G75*
G02*
X106467500Y-114305000I237500J0D01*
G01*
G37*
G36*
G01*
X87417500Y-116030000D02*
X87892500Y-116030000D01*
G75*
G02*
X88130000Y-116267500I0J-237500D01*
G01*
X88130000Y-116867500D01*
G75*
G02*
X87892500Y-117105000I-237500J0D01*
G01*
X87417500Y-117105000D01*
G75*
G02*
X87180000Y-116867500I0J237500D01*
G01*
X87180000Y-116267500D01*
G75*
G02*
X87417500Y-116030000I237500J0D01*
G01*
G37*
G36*
G01*
X87417500Y-114305000D02*
X87892500Y-114305000D01*
G75*
G02*
X88130000Y-114542500I0J-237500D01*
G01*
X88130000Y-115142500D01*
G75*
G02*
X87892500Y-115380000I-237500J0D01*
G01*
X87417500Y-115380000D01*
G75*
G02*
X87180000Y-115142500I0J237500D01*
G01*
X87180000Y-114542500D01*
G75*
G02*
X87417500Y-114305000I237500J0D01*
G01*
G37*
G36*
G01*
X68367500Y-116030000D02*
X68842500Y-116030000D01*
G75*
G02*
X69080000Y-116267500I0J-237500D01*
G01*
X69080000Y-116867500D01*
G75*
G02*
X68842500Y-117105000I-237500J0D01*
G01*
X68367500Y-117105000D01*
G75*
G02*
X68130000Y-116867500I0J237500D01*
G01*
X68130000Y-116267500D01*
G75*
G02*
X68367500Y-116030000I237500J0D01*
G01*
G37*
G36*
G01*
X68367500Y-114305000D02*
X68842500Y-114305000D01*
G75*
G02*
X69080000Y-114542500I0J-237500D01*
G01*
X69080000Y-115142500D01*
G75*
G02*
X68842500Y-115380000I-237500J0D01*
G01*
X68367500Y-115380000D01*
G75*
G02*
X68130000Y-115142500I0J237500D01*
G01*
X68130000Y-114542500D01*
G75*
G02*
X68367500Y-114305000I237500J0D01*
G01*
G37*
G36*
G01*
X106467500Y-96980000D02*
X106942500Y-96980000D01*
G75*
G02*
X107180000Y-97217500I0J-237500D01*
G01*
X107180000Y-97817500D01*
G75*
G02*
X106942500Y-98055000I-237500J0D01*
G01*
X106467500Y-98055000D01*
G75*
G02*
X106230000Y-97817500I0J237500D01*
G01*
X106230000Y-97217500D01*
G75*
G02*
X106467500Y-96980000I237500J0D01*
G01*
G37*
G36*
G01*
X106467500Y-95255000D02*
X106942500Y-95255000D01*
G75*
G02*
X107180000Y-95492500I0J-237500D01*
G01*
X107180000Y-96092500D01*
G75*
G02*
X106942500Y-96330000I-237500J0D01*
G01*
X106467500Y-96330000D01*
G75*
G02*
X106230000Y-96092500I0J237500D01*
G01*
X106230000Y-95492500D01*
G75*
G02*
X106467500Y-95255000I237500J0D01*
G01*
G37*
G36*
G01*
X87417500Y-96980000D02*
X87892500Y-96980000D01*
G75*
G02*
X88130000Y-97217500I0J-237500D01*
G01*
X88130000Y-97817500D01*
G75*
G02*
X87892500Y-98055000I-237500J0D01*
G01*
X87417500Y-98055000D01*
G75*
G02*
X87180000Y-97817500I0J237500D01*
G01*
X87180000Y-97217500D01*
G75*
G02*
X87417500Y-96980000I237500J0D01*
G01*
G37*
G36*
G01*
X87417500Y-95255000D02*
X87892500Y-95255000D01*
G75*
G02*
X88130000Y-95492500I0J-237500D01*
G01*
X88130000Y-96092500D01*
G75*
G02*
X87892500Y-96330000I-237500J0D01*
G01*
X87417500Y-96330000D01*
G75*
G02*
X87180000Y-96092500I0J237500D01*
G01*
X87180000Y-95492500D01*
G75*
G02*
X87417500Y-95255000I237500J0D01*
G01*
G37*
G36*
G01*
X68367500Y-96980000D02*
X68842500Y-96980000D01*
G75*
G02*
X69080000Y-97217500I0J-237500D01*
G01*
X69080000Y-97817500D01*
G75*
G02*
X68842500Y-98055000I-237500J0D01*
G01*
X68367500Y-98055000D01*
G75*
G02*
X68130000Y-97817500I0J237500D01*
G01*
X68130000Y-97217500D01*
G75*
G02*
X68367500Y-96980000I237500J0D01*
G01*
G37*
G36*
G01*
X68367500Y-95255000D02*
X68842500Y-95255000D01*
G75*
G02*
X69080000Y-95492500I0J-237500D01*
G01*
X69080000Y-96092500D01*
G75*
G02*
X68842500Y-96330000I-237500J0D01*
G01*
X68367500Y-96330000D01*
G75*
G02*
X68130000Y-96092500I0J237500D01*
G01*
X68130000Y-95492500D01*
G75*
G02*
X68367500Y-95255000I237500J0D01*
G01*
G37*
G36*
G01*
X127330000Y-98117500D02*
X127330000Y-97642500D01*
G75*
G02*
X127567500Y-97405000I237500J0D01*
G01*
X128167500Y-97405000D01*
G75*
G02*
X128405000Y-97642500I0J-237500D01*
G01*
X128405000Y-98117500D01*
G75*
G02*
X128167500Y-98355000I-237500J0D01*
G01*
X127567500Y-98355000D01*
G75*
G02*
X127330000Y-98117500I0J237500D01*
G01*
G37*
G36*
G01*
X125605000Y-98117500D02*
X125605000Y-97642500D01*
G75*
G02*
X125842500Y-97405000I237500J0D01*
G01*
X126442500Y-97405000D01*
G75*
G02*
X126680000Y-97642500I0J-237500D01*
G01*
X126680000Y-98117500D01*
G75*
G02*
X126442500Y-98355000I-237500J0D01*
G01*
X125842500Y-98355000D01*
G75*
G02*
X125605000Y-98117500I0J237500D01*
G01*
G37*
G36*
G01*
X106467500Y-77930000D02*
X106942500Y-77930000D01*
G75*
G02*
X107180000Y-78167500I0J-237500D01*
G01*
X107180000Y-78767500D01*
G75*
G02*
X106942500Y-79005000I-237500J0D01*
G01*
X106467500Y-79005000D01*
G75*
G02*
X106230000Y-78767500I0J237500D01*
G01*
X106230000Y-78167500D01*
G75*
G02*
X106467500Y-77930000I237500J0D01*
G01*
G37*
G36*
G01*
X106467500Y-76205000D02*
X106942500Y-76205000D01*
G75*
G02*
X107180000Y-76442500I0J-237500D01*
G01*
X107180000Y-77042500D01*
G75*
G02*
X106942500Y-77280000I-237500J0D01*
G01*
X106467500Y-77280000D01*
G75*
G02*
X106230000Y-77042500I0J237500D01*
G01*
X106230000Y-76442500D01*
G75*
G02*
X106467500Y-76205000I237500J0D01*
G01*
G37*
G36*
G01*
X87417500Y-77930000D02*
X87892500Y-77930000D01*
G75*
G02*
X88130000Y-78167500I0J-237500D01*
G01*
X88130000Y-78767500D01*
G75*
G02*
X87892500Y-79005000I-237500J0D01*
G01*
X87417500Y-79005000D01*
G75*
G02*
X87180000Y-78767500I0J237500D01*
G01*
X87180000Y-78167500D01*
G75*
G02*
X87417500Y-77930000I237500J0D01*
G01*
G37*
G36*
G01*
X87417500Y-76205000D02*
X87892500Y-76205000D01*
G75*
G02*
X88130000Y-76442500I0J-237500D01*
G01*
X88130000Y-77042500D01*
G75*
G02*
X87892500Y-77280000I-237500J0D01*
G01*
X87417500Y-77280000D01*
G75*
G02*
X87180000Y-77042500I0J237500D01*
G01*
X87180000Y-76442500D01*
G75*
G02*
X87417500Y-76205000I237500J0D01*
G01*
G37*
G36*
G01*
X68367500Y-77930000D02*
X68842500Y-77930000D01*
G75*
G02*
X69080000Y-78167500I0J-237500D01*
G01*
X69080000Y-78767500D01*
G75*
G02*
X68842500Y-79005000I-237500J0D01*
G01*
X68367500Y-79005000D01*
G75*
G02*
X68130000Y-78767500I0J237500D01*
G01*
X68130000Y-78167500D01*
G75*
G02*
X68367500Y-77930000I237500J0D01*
G01*
G37*
G36*
G01*
X68367500Y-76205000D02*
X68842500Y-76205000D01*
G75*
G02*
X69080000Y-76442500I0J-237500D01*
G01*
X69080000Y-77042500D01*
G75*
G02*
X68842500Y-77280000I-237500J0D01*
G01*
X68367500Y-77280000D01*
G75*
G02*
X68130000Y-77042500I0J237500D01*
G01*
X68130000Y-76442500D01*
G75*
G02*
X68367500Y-76205000I237500J0D01*
G01*
G37*
G36*
G01*
X125517500Y-58880000D02*
X125992500Y-58880000D01*
G75*
G02*
X126230000Y-59117500I0J-237500D01*
G01*
X126230000Y-59717500D01*
G75*
G02*
X125992500Y-59955000I-237500J0D01*
G01*
X125517500Y-59955000D01*
G75*
G02*
X125280000Y-59717500I0J237500D01*
G01*
X125280000Y-59117500D01*
G75*
G02*
X125517500Y-58880000I237500J0D01*
G01*
G37*
G36*
G01*
X125517500Y-57155000D02*
X125992500Y-57155000D01*
G75*
G02*
X126230000Y-57392500I0J-237500D01*
G01*
X126230000Y-57992500D01*
G75*
G02*
X125992500Y-58230000I-237500J0D01*
G01*
X125517500Y-58230000D01*
G75*
G02*
X125280000Y-57992500I0J237500D01*
G01*
X125280000Y-57392500D01*
G75*
G02*
X125517500Y-57155000I237500J0D01*
G01*
G37*
G36*
G01*
X106467500Y-58880000D02*
X106942500Y-58880000D01*
G75*
G02*
X107180000Y-59117500I0J-237500D01*
G01*
X107180000Y-59717500D01*
G75*
G02*
X106942500Y-59955000I-237500J0D01*
G01*
X106467500Y-59955000D01*
G75*
G02*
X106230000Y-59717500I0J237500D01*
G01*
X106230000Y-59117500D01*
G75*
G02*
X106467500Y-58880000I237500J0D01*
G01*
G37*
G36*
G01*
X106467500Y-57155000D02*
X106942500Y-57155000D01*
G75*
G02*
X107180000Y-57392500I0J-237500D01*
G01*
X107180000Y-57992500D01*
G75*
G02*
X106942500Y-58230000I-237500J0D01*
G01*
X106467500Y-58230000D01*
G75*
G02*
X106230000Y-57992500I0J237500D01*
G01*
X106230000Y-57392500D01*
G75*
G02*
X106467500Y-57155000I237500J0D01*
G01*
G37*
G36*
G01*
X87417500Y-58880000D02*
X87892500Y-58880000D01*
G75*
G02*
X88130000Y-59117500I0J-237500D01*
G01*
X88130000Y-59717500D01*
G75*
G02*
X87892500Y-59955000I-237500J0D01*
G01*
X87417500Y-59955000D01*
G75*
G02*
X87180000Y-59717500I0J237500D01*
G01*
X87180000Y-59117500D01*
G75*
G02*
X87417500Y-58880000I237500J0D01*
G01*
G37*
G36*
G01*
X87417500Y-57155000D02*
X87892500Y-57155000D01*
G75*
G02*
X88130000Y-57392500I0J-237500D01*
G01*
X88130000Y-57992500D01*
G75*
G02*
X87892500Y-58230000I-237500J0D01*
G01*
X87417500Y-58230000D01*
G75*
G02*
X87180000Y-57992500I0J237500D01*
G01*
X87180000Y-57392500D01*
G75*
G02*
X87417500Y-57155000I237500J0D01*
G01*
G37*
G36*
G01*
X68367500Y-58880000D02*
X68842500Y-58880000D01*
G75*
G02*
X69080000Y-59117500I0J-237500D01*
G01*
X69080000Y-59717500D01*
G75*
G02*
X68842500Y-59955000I-237500J0D01*
G01*
X68367500Y-59955000D01*
G75*
G02*
X68130000Y-59717500I0J237500D01*
G01*
X68130000Y-59117500D01*
G75*
G02*
X68367500Y-58880000I237500J0D01*
G01*
G37*
G36*
G01*
X68367500Y-57155000D02*
X68842500Y-57155000D01*
G75*
G02*
X69080000Y-57392500I0J-237500D01*
G01*
X69080000Y-57992500D01*
G75*
G02*
X68842500Y-58230000I-237500J0D01*
G01*
X68367500Y-58230000D01*
G75*
G02*
X68130000Y-57992500I0J237500D01*
G01*
X68130000Y-57392500D01*
G75*
G02*
X68367500Y-57155000I237500J0D01*
G01*
G37*
D18*
G36*
X97055098Y-76444510D02*
G01*
X97055191Y-76444538D01*
X97055278Y-76444584D01*
X97055354Y-76444646D01*
X97055416Y-76444722D01*
X97055462Y-76444809D01*
X97055490Y-76444902D01*
X97055500Y-76445000D01*
X97055500Y-77265000D01*
X97055490Y-77265098D01*
X97055462Y-77265191D01*
X97055416Y-77265278D01*
X97055354Y-77265354D01*
X97055278Y-77265416D01*
X97055191Y-77265462D01*
X97055098Y-77265490D01*
X97055000Y-77265500D01*
X95509000Y-77265500D01*
X95508902Y-77265490D01*
X95508809Y-77265462D01*
X95508722Y-77265416D01*
X95508646Y-77265354D01*
X95508584Y-77265278D01*
X95508538Y-77265191D01*
X95508510Y-77265098D01*
X95508500Y-77265000D01*
X95508500Y-76445000D01*
X95508510Y-76444902D01*
X95508538Y-76444809D01*
X95508584Y-76444722D01*
X95508646Y-76444646D01*
X95508722Y-76444584D01*
X95508809Y-76444538D01*
X95508902Y-76444510D01*
X95509000Y-76444500D01*
X97055000Y-76444500D01*
X97055098Y-76444510D01*
G37*
G36*
X97055098Y-77944510D02*
G01*
X97055191Y-77944538D01*
X97055278Y-77944584D01*
X97055354Y-77944646D01*
X97055416Y-77944722D01*
X97055462Y-77944809D01*
X97055490Y-77944902D01*
X97055500Y-77945000D01*
X97055500Y-78765190D01*
X97055490Y-78765288D01*
X97055462Y-78765381D01*
X97055416Y-78765468D01*
X97055354Y-78765544D01*
X97055278Y-78765606D01*
X97055191Y-78765652D01*
X97055098Y-78765680D01*
X97055000Y-78765690D01*
X95509000Y-78765500D01*
X95508902Y-78765490D01*
X95508809Y-78765462D01*
X95508722Y-78765416D01*
X95508646Y-78765354D01*
X95508584Y-78765278D01*
X95508538Y-78765191D01*
X95508510Y-78765097D01*
X95508500Y-78765000D01*
X95508500Y-77945000D01*
X95508510Y-77944902D01*
X95508538Y-77944809D01*
X95508584Y-77944722D01*
X95508646Y-77944646D01*
X95508722Y-77944584D01*
X95508809Y-77944538D01*
X95508902Y-77944510D01*
X95509000Y-77944500D01*
X97055000Y-77944500D01*
X97055098Y-77944510D01*
G37*
G36*
X91801098Y-77944510D02*
G01*
X91801191Y-77944538D01*
X91801278Y-77944584D01*
X91801354Y-77944646D01*
X91801416Y-77944722D01*
X91801462Y-77944809D01*
X91801490Y-77944902D01*
X91801500Y-77945000D01*
X91801500Y-78765000D01*
X91801490Y-78765098D01*
X91801462Y-78765191D01*
X91801416Y-78765278D01*
X91801354Y-78765354D01*
X91801278Y-78765416D01*
X91801191Y-78765462D01*
X91801098Y-78765490D01*
X91801000Y-78765500D01*
X90255000Y-78765500D01*
X90254902Y-78765490D01*
X90254809Y-78765462D01*
X90254722Y-78765416D01*
X90254646Y-78765354D01*
X90254584Y-78765278D01*
X90254538Y-78765191D01*
X90254510Y-78765098D01*
X90254500Y-78765000D01*
X90254500Y-77945000D01*
X90254510Y-77944902D01*
X90254538Y-77944809D01*
X90254584Y-77944722D01*
X90254646Y-77944646D01*
X90254722Y-77944584D01*
X90254809Y-77944538D01*
X90254902Y-77944510D01*
X90255000Y-77944500D01*
X91801000Y-77944500D01*
X91801098Y-77944510D01*
G37*
G36*
X91801098Y-76444510D02*
G01*
X91801191Y-76444538D01*
X91801278Y-76444584D01*
X91801354Y-76444646D01*
X91801416Y-76444722D01*
X91801462Y-76444809D01*
X91801490Y-76444902D01*
X91801500Y-76445000D01*
X91801500Y-77265000D01*
X91801490Y-77265098D01*
X91801462Y-77265191D01*
X91801416Y-77265278D01*
X91801354Y-77265354D01*
X91801278Y-77265416D01*
X91801191Y-77265462D01*
X91801098Y-77265490D01*
X91801000Y-77265500D01*
X90255000Y-77265500D01*
X90254902Y-77265490D01*
X90254809Y-77265462D01*
X90254722Y-77265416D01*
X90254646Y-77265354D01*
X90254584Y-77265278D01*
X90254538Y-77265191D01*
X90254510Y-77265098D01*
X90254500Y-77265000D01*
X90254500Y-76445000D01*
X90254510Y-76444902D01*
X90254538Y-76444809D01*
X90254584Y-76444722D01*
X90254646Y-76444646D01*
X90254722Y-76444584D01*
X90254809Y-76444538D01*
X90254902Y-76444510D01*
X90255000Y-76444500D01*
X91801000Y-76444500D01*
X91801098Y-76444510D01*
G37*
G36*
X97055098Y-95494510D02*
G01*
X97055191Y-95494538D01*
X97055278Y-95494584D01*
X97055354Y-95494646D01*
X97055416Y-95494722D01*
X97055462Y-95494809D01*
X97055490Y-95494902D01*
X97055500Y-95495000D01*
X97055500Y-96315000D01*
X97055490Y-96315098D01*
X97055462Y-96315191D01*
X97055416Y-96315278D01*
X97055354Y-96315354D01*
X97055278Y-96315416D01*
X97055191Y-96315462D01*
X97055098Y-96315490D01*
X97055000Y-96315500D01*
X95509000Y-96315500D01*
X95508902Y-96315490D01*
X95508809Y-96315462D01*
X95508722Y-96315416D01*
X95508646Y-96315354D01*
X95508584Y-96315278D01*
X95508538Y-96315191D01*
X95508510Y-96315098D01*
X95508500Y-96315000D01*
X95508500Y-95495000D01*
X95508510Y-95494902D01*
X95508538Y-95494809D01*
X95508584Y-95494722D01*
X95508646Y-95494646D01*
X95508722Y-95494584D01*
X95508809Y-95494538D01*
X95508902Y-95494510D01*
X95509000Y-95494500D01*
X97055000Y-95494500D01*
X97055098Y-95494510D01*
G37*
G36*
X97055098Y-96994510D02*
G01*
X97055191Y-96994538D01*
X97055278Y-96994584D01*
X97055354Y-96994646D01*
X97055416Y-96994722D01*
X97055462Y-96994809D01*
X97055490Y-96994902D01*
X97055500Y-96995000D01*
X97055500Y-97815190D01*
X97055490Y-97815288D01*
X97055462Y-97815381D01*
X97055416Y-97815468D01*
X97055354Y-97815544D01*
X97055278Y-97815606D01*
X97055191Y-97815652D01*
X97055098Y-97815680D01*
X97055000Y-97815690D01*
X95509000Y-97815500D01*
X95508902Y-97815490D01*
X95508809Y-97815462D01*
X95508722Y-97815416D01*
X95508646Y-97815354D01*
X95508584Y-97815278D01*
X95508538Y-97815191D01*
X95508510Y-97815097D01*
X95508500Y-97815000D01*
X95508500Y-96995000D01*
X95508510Y-96994902D01*
X95508538Y-96994809D01*
X95508584Y-96994722D01*
X95508646Y-96994646D01*
X95508722Y-96994584D01*
X95508809Y-96994538D01*
X95508902Y-96994510D01*
X95509000Y-96994500D01*
X97055000Y-96994500D01*
X97055098Y-96994510D01*
G37*
G36*
X91801098Y-96994510D02*
G01*
X91801191Y-96994538D01*
X91801278Y-96994584D01*
X91801354Y-96994646D01*
X91801416Y-96994722D01*
X91801462Y-96994809D01*
X91801490Y-96994902D01*
X91801500Y-96995000D01*
X91801500Y-97815000D01*
X91801490Y-97815098D01*
X91801462Y-97815191D01*
X91801416Y-97815278D01*
X91801354Y-97815354D01*
X91801278Y-97815416D01*
X91801191Y-97815462D01*
X91801098Y-97815490D01*
X91801000Y-97815500D01*
X90255000Y-97815500D01*
X90254902Y-97815490D01*
X90254809Y-97815462D01*
X90254722Y-97815416D01*
X90254646Y-97815354D01*
X90254584Y-97815278D01*
X90254538Y-97815191D01*
X90254510Y-97815098D01*
X90254500Y-97815000D01*
X90254500Y-96995000D01*
X90254510Y-96994902D01*
X90254538Y-96994809D01*
X90254584Y-96994722D01*
X90254646Y-96994646D01*
X90254722Y-96994584D01*
X90254809Y-96994538D01*
X90254902Y-96994510D01*
X90255000Y-96994500D01*
X91801000Y-96994500D01*
X91801098Y-96994510D01*
G37*
G36*
X91801098Y-95494510D02*
G01*
X91801191Y-95494538D01*
X91801278Y-95494584D01*
X91801354Y-95494646D01*
X91801416Y-95494722D01*
X91801462Y-95494809D01*
X91801490Y-95494902D01*
X91801500Y-95495000D01*
X91801500Y-96315000D01*
X91801490Y-96315098D01*
X91801462Y-96315191D01*
X91801416Y-96315278D01*
X91801354Y-96315354D01*
X91801278Y-96315416D01*
X91801191Y-96315462D01*
X91801098Y-96315490D01*
X91801000Y-96315500D01*
X90255000Y-96315500D01*
X90254902Y-96315490D01*
X90254809Y-96315462D01*
X90254722Y-96315416D01*
X90254646Y-96315354D01*
X90254584Y-96315278D01*
X90254538Y-96315191D01*
X90254510Y-96315098D01*
X90254500Y-96315000D01*
X90254500Y-95495000D01*
X90254510Y-95494902D01*
X90254538Y-95494809D01*
X90254584Y-95494722D01*
X90254646Y-95494646D01*
X90254722Y-95494584D01*
X90254809Y-95494538D01*
X90254902Y-95494510D01*
X90255000Y-95494500D01*
X91801000Y-95494500D01*
X91801098Y-95494510D01*
G37*
G36*
X125844510Y-126579902D02*
G01*
X125844538Y-126579809D01*
X125844584Y-126579722D01*
X125844646Y-126579646D01*
X125844722Y-126579584D01*
X125844809Y-126579538D01*
X125844902Y-126579510D01*
X125845000Y-126579500D01*
X126665000Y-126579500D01*
X126665098Y-126579510D01*
X126665191Y-126579538D01*
X126665278Y-126579584D01*
X126665354Y-126579646D01*
X126665416Y-126579722D01*
X126665462Y-126579809D01*
X126665490Y-126579902D01*
X126665500Y-126580000D01*
X126665500Y-128126000D01*
X126665490Y-128126098D01*
X126665462Y-128126191D01*
X126665416Y-128126278D01*
X126665354Y-128126354D01*
X126665278Y-128126416D01*
X126665191Y-128126462D01*
X126665098Y-128126490D01*
X126665000Y-128126500D01*
X125845000Y-128126500D01*
X125844902Y-128126490D01*
X125844809Y-128126462D01*
X125844722Y-128126416D01*
X125844646Y-128126354D01*
X125844584Y-128126278D01*
X125844538Y-128126191D01*
X125844510Y-128126098D01*
X125844500Y-128126000D01*
X125844500Y-126580000D01*
X125844510Y-126579902D01*
G37*
G36*
X127344510Y-126579902D02*
G01*
X127344538Y-126579809D01*
X127344584Y-126579722D01*
X127344646Y-126579646D01*
X127344722Y-126579584D01*
X127344809Y-126579538D01*
X127344902Y-126579510D01*
X127345000Y-126579500D01*
X128165190Y-126579500D01*
X128165288Y-126579510D01*
X128165381Y-126579538D01*
X128165468Y-126579584D01*
X128165544Y-126579646D01*
X128165606Y-126579722D01*
X128165652Y-126579809D01*
X128165680Y-126579902D01*
X128165690Y-126580000D01*
X128165500Y-128126000D01*
X128165490Y-128126098D01*
X128165462Y-128126191D01*
X128165416Y-128126278D01*
X128165354Y-128126354D01*
X128165278Y-128126416D01*
X128165191Y-128126462D01*
X128165097Y-128126490D01*
X128165000Y-128126500D01*
X127345000Y-128126500D01*
X127344902Y-128126490D01*
X127344809Y-128126462D01*
X127344722Y-128126416D01*
X127344646Y-128126354D01*
X127344584Y-128126278D01*
X127344538Y-128126191D01*
X127344510Y-128126098D01*
X127344500Y-128126000D01*
X127344500Y-126580000D01*
X127344510Y-126579902D01*
G37*
G36*
X127344510Y-131833902D02*
G01*
X127344538Y-131833809D01*
X127344584Y-131833722D01*
X127344646Y-131833646D01*
X127344722Y-131833584D01*
X127344809Y-131833538D01*
X127344902Y-131833510D01*
X127345000Y-131833500D01*
X128165000Y-131833500D01*
X128165098Y-131833510D01*
X128165191Y-131833538D01*
X128165278Y-131833584D01*
X128165354Y-131833646D01*
X128165416Y-131833722D01*
X128165462Y-131833809D01*
X128165490Y-131833902D01*
X128165500Y-131834000D01*
X128165500Y-133380000D01*
X128165490Y-133380098D01*
X128165462Y-133380191D01*
X128165416Y-133380278D01*
X128165354Y-133380354D01*
X128165278Y-133380416D01*
X128165191Y-133380462D01*
X128165098Y-133380490D01*
X128165000Y-133380500D01*
X127345000Y-133380500D01*
X127344902Y-133380490D01*
X127344809Y-133380462D01*
X127344722Y-133380416D01*
X127344646Y-133380354D01*
X127344584Y-133380278D01*
X127344538Y-133380191D01*
X127344510Y-133380098D01*
X127344500Y-133380000D01*
X127344500Y-131834000D01*
X127344510Y-131833902D01*
G37*
G36*
X125844510Y-131833902D02*
G01*
X125844538Y-131833809D01*
X125844584Y-131833722D01*
X125844646Y-131833646D01*
X125844722Y-131833584D01*
X125844809Y-131833538D01*
X125844902Y-131833510D01*
X125845000Y-131833500D01*
X126665000Y-131833500D01*
X126665098Y-131833510D01*
X126665191Y-131833538D01*
X126665278Y-131833584D01*
X126665354Y-131833646D01*
X126665416Y-131833722D01*
X126665462Y-131833809D01*
X126665490Y-131833902D01*
X126665500Y-131834000D01*
X126665500Y-133380000D01*
X126665490Y-133380098D01*
X126665462Y-133380191D01*
X126665416Y-133380278D01*
X126665354Y-133380354D01*
X126665278Y-133380416D01*
X126665191Y-133380462D01*
X126665098Y-133380490D01*
X126665000Y-133380500D01*
X125845000Y-133380500D01*
X125844902Y-133380490D01*
X125844809Y-133380462D01*
X125844722Y-133380416D01*
X125844646Y-133380354D01*
X125844584Y-133380278D01*
X125844538Y-133380191D01*
X125844510Y-133380098D01*
X125844500Y-133380000D01*
X125844500Y-131834000D01*
X125844510Y-131833902D01*
G37*
G36*
X116105098Y-133594510D02*
G01*
X116105191Y-133594538D01*
X116105278Y-133594584D01*
X116105354Y-133594646D01*
X116105416Y-133594722D01*
X116105462Y-133594809D01*
X116105490Y-133594902D01*
X116105500Y-133595000D01*
X116105500Y-134415000D01*
X116105490Y-134415098D01*
X116105462Y-134415191D01*
X116105416Y-134415278D01*
X116105354Y-134415354D01*
X116105278Y-134415416D01*
X116105191Y-134415462D01*
X116105098Y-134415490D01*
X116105000Y-134415500D01*
X114559000Y-134415500D01*
X114558902Y-134415490D01*
X114558809Y-134415462D01*
X114558722Y-134415416D01*
X114558646Y-134415354D01*
X114558584Y-134415278D01*
X114558538Y-134415191D01*
X114558510Y-134415098D01*
X114558500Y-134415000D01*
X114558500Y-133595000D01*
X114558510Y-133594902D01*
X114558538Y-133594809D01*
X114558584Y-133594722D01*
X114558646Y-133594646D01*
X114558722Y-133594584D01*
X114558809Y-133594538D01*
X114558902Y-133594510D01*
X114559000Y-133594500D01*
X116105000Y-133594500D01*
X116105098Y-133594510D01*
G37*
G36*
X116105098Y-135094510D02*
G01*
X116105191Y-135094538D01*
X116105278Y-135094584D01*
X116105354Y-135094646D01*
X116105416Y-135094722D01*
X116105462Y-135094809D01*
X116105490Y-135094902D01*
X116105500Y-135095000D01*
X116105500Y-135915190D01*
X116105490Y-135915288D01*
X116105462Y-135915381D01*
X116105416Y-135915468D01*
X116105354Y-135915544D01*
X116105278Y-135915606D01*
X116105191Y-135915652D01*
X116105098Y-135915680D01*
X116105000Y-135915690D01*
X114559000Y-135915500D01*
X114558902Y-135915490D01*
X114558809Y-135915462D01*
X114558722Y-135915416D01*
X114558646Y-135915354D01*
X114558584Y-135915278D01*
X114558538Y-135915191D01*
X114558510Y-135915097D01*
X114558500Y-135915000D01*
X114558500Y-135095000D01*
X114558510Y-135094902D01*
X114558538Y-135094809D01*
X114558584Y-135094722D01*
X114558646Y-135094646D01*
X114558722Y-135094584D01*
X114558809Y-135094538D01*
X114558902Y-135094510D01*
X114559000Y-135094500D01*
X116105000Y-135094500D01*
X116105098Y-135094510D01*
G37*
G36*
X110851098Y-135094510D02*
G01*
X110851191Y-135094538D01*
X110851278Y-135094584D01*
X110851354Y-135094646D01*
X110851416Y-135094722D01*
X110851462Y-135094809D01*
X110851490Y-135094902D01*
X110851500Y-135095000D01*
X110851500Y-135915000D01*
X110851490Y-135915098D01*
X110851462Y-135915191D01*
X110851416Y-135915278D01*
X110851354Y-135915354D01*
X110851278Y-135915416D01*
X110851191Y-135915462D01*
X110851098Y-135915490D01*
X110851000Y-135915500D01*
X109305000Y-135915500D01*
X109304902Y-135915490D01*
X109304809Y-135915462D01*
X109304722Y-135915416D01*
X109304646Y-135915354D01*
X109304584Y-135915278D01*
X109304538Y-135915191D01*
X109304510Y-135915098D01*
X109304500Y-135915000D01*
X109304500Y-135095000D01*
X109304510Y-135094902D01*
X109304538Y-135094809D01*
X109304584Y-135094722D01*
X109304646Y-135094646D01*
X109304722Y-135094584D01*
X109304809Y-135094538D01*
X109304902Y-135094510D01*
X109305000Y-135094500D01*
X110851000Y-135094500D01*
X110851098Y-135094510D01*
G37*
G36*
X110851098Y-133594510D02*
G01*
X110851191Y-133594538D01*
X110851278Y-133594584D01*
X110851354Y-133594646D01*
X110851416Y-133594722D01*
X110851462Y-133594809D01*
X110851490Y-133594902D01*
X110851500Y-133595000D01*
X110851500Y-134415000D01*
X110851490Y-134415098D01*
X110851462Y-134415191D01*
X110851416Y-134415278D01*
X110851354Y-134415354D01*
X110851278Y-134415416D01*
X110851191Y-134415462D01*
X110851098Y-134415490D01*
X110851000Y-134415500D01*
X109305000Y-134415500D01*
X109304902Y-134415490D01*
X109304809Y-134415462D01*
X109304722Y-134415416D01*
X109304646Y-134415354D01*
X109304584Y-134415278D01*
X109304538Y-134415191D01*
X109304510Y-134415098D01*
X109304500Y-134415000D01*
X109304500Y-133595000D01*
X109304510Y-133594902D01*
X109304538Y-133594809D01*
X109304584Y-133594722D01*
X109304646Y-133594646D01*
X109304722Y-133594584D01*
X109304809Y-133594538D01*
X109304902Y-133594510D01*
X109305000Y-133594500D01*
X110851000Y-133594500D01*
X110851098Y-133594510D01*
G37*
G36*
X87530098Y-133594510D02*
G01*
X87530191Y-133594538D01*
X87530278Y-133594584D01*
X87530354Y-133594646D01*
X87530416Y-133594722D01*
X87530462Y-133594809D01*
X87530490Y-133594902D01*
X87530500Y-133595000D01*
X87530500Y-134415000D01*
X87530490Y-134415098D01*
X87530462Y-134415191D01*
X87530416Y-134415278D01*
X87530354Y-134415354D01*
X87530278Y-134415416D01*
X87530191Y-134415462D01*
X87530098Y-134415490D01*
X87530000Y-134415500D01*
X85984000Y-134415500D01*
X85983902Y-134415490D01*
X85983809Y-134415462D01*
X85983722Y-134415416D01*
X85983646Y-134415354D01*
X85983584Y-134415278D01*
X85983538Y-134415191D01*
X85983510Y-134415098D01*
X85983500Y-134415000D01*
X85983500Y-133595000D01*
X85983510Y-133594902D01*
X85983538Y-133594809D01*
X85983584Y-133594722D01*
X85983646Y-133594646D01*
X85983722Y-133594584D01*
X85983809Y-133594538D01*
X85983902Y-133594510D01*
X85984000Y-133594500D01*
X87530000Y-133594500D01*
X87530098Y-133594510D01*
G37*
G36*
X87530098Y-135094510D02*
G01*
X87530191Y-135094538D01*
X87530278Y-135094584D01*
X87530354Y-135094646D01*
X87530416Y-135094722D01*
X87530462Y-135094809D01*
X87530490Y-135094902D01*
X87530500Y-135095000D01*
X87530500Y-135915190D01*
X87530490Y-135915288D01*
X87530462Y-135915381D01*
X87530416Y-135915468D01*
X87530354Y-135915544D01*
X87530278Y-135915606D01*
X87530191Y-135915652D01*
X87530098Y-135915680D01*
X87530000Y-135915690D01*
X85984000Y-135915500D01*
X85983902Y-135915490D01*
X85983809Y-135915462D01*
X85983722Y-135915416D01*
X85983646Y-135915354D01*
X85983584Y-135915278D01*
X85983538Y-135915191D01*
X85983510Y-135915097D01*
X85983500Y-135915000D01*
X85983500Y-135095000D01*
X85983510Y-135094902D01*
X85983538Y-135094809D01*
X85983584Y-135094722D01*
X85983646Y-135094646D01*
X85983722Y-135094584D01*
X85983809Y-135094538D01*
X85983902Y-135094510D01*
X85984000Y-135094500D01*
X87530000Y-135094500D01*
X87530098Y-135094510D01*
G37*
G36*
X82276098Y-135094510D02*
G01*
X82276191Y-135094538D01*
X82276278Y-135094584D01*
X82276354Y-135094646D01*
X82276416Y-135094722D01*
X82276462Y-135094809D01*
X82276490Y-135094902D01*
X82276500Y-135095000D01*
X82276500Y-135915000D01*
X82276490Y-135915098D01*
X82276462Y-135915191D01*
X82276416Y-135915278D01*
X82276354Y-135915354D01*
X82276278Y-135915416D01*
X82276191Y-135915462D01*
X82276098Y-135915490D01*
X82276000Y-135915500D01*
X80730000Y-135915500D01*
X80729902Y-135915490D01*
X80729809Y-135915462D01*
X80729722Y-135915416D01*
X80729646Y-135915354D01*
X80729584Y-135915278D01*
X80729538Y-135915191D01*
X80729510Y-135915098D01*
X80729500Y-135915000D01*
X80729500Y-135095000D01*
X80729510Y-135094902D01*
X80729538Y-135094809D01*
X80729584Y-135094722D01*
X80729646Y-135094646D01*
X80729722Y-135094584D01*
X80729809Y-135094538D01*
X80729902Y-135094510D01*
X80730000Y-135094500D01*
X82276000Y-135094500D01*
X82276098Y-135094510D01*
G37*
G36*
X82276098Y-133594510D02*
G01*
X82276191Y-133594538D01*
X82276278Y-133594584D01*
X82276354Y-133594646D01*
X82276416Y-133594722D01*
X82276462Y-133594809D01*
X82276490Y-133594902D01*
X82276500Y-133595000D01*
X82276500Y-134415000D01*
X82276490Y-134415098D01*
X82276462Y-134415191D01*
X82276416Y-134415278D01*
X82276354Y-134415354D01*
X82276278Y-134415416D01*
X82276191Y-134415462D01*
X82276098Y-134415490D01*
X82276000Y-134415500D01*
X80730000Y-134415500D01*
X80729902Y-134415490D01*
X80729809Y-134415462D01*
X80729722Y-134415416D01*
X80729646Y-134415354D01*
X80729584Y-134415278D01*
X80729538Y-134415191D01*
X80729510Y-134415098D01*
X80729500Y-134415000D01*
X80729500Y-133595000D01*
X80729510Y-133594902D01*
X80729538Y-133594809D01*
X80729584Y-133594722D01*
X80729646Y-133594646D01*
X80729722Y-133594584D01*
X80729809Y-133594538D01*
X80729902Y-133594510D01*
X80730000Y-133594500D01*
X82276000Y-133594500D01*
X82276098Y-133594510D01*
G37*
G36*
X116105098Y-114544510D02*
G01*
X116105191Y-114544538D01*
X116105278Y-114544584D01*
X116105354Y-114544646D01*
X116105416Y-114544722D01*
X116105462Y-114544809D01*
X116105490Y-114544902D01*
X116105500Y-114545000D01*
X116105500Y-115365000D01*
X116105490Y-115365098D01*
X116105462Y-115365191D01*
X116105416Y-115365278D01*
X116105354Y-115365354D01*
X116105278Y-115365416D01*
X116105191Y-115365462D01*
X116105098Y-115365490D01*
X116105000Y-115365500D01*
X114559000Y-115365500D01*
X114558902Y-115365490D01*
X114558809Y-115365462D01*
X114558722Y-115365416D01*
X114558646Y-115365354D01*
X114558584Y-115365278D01*
X114558538Y-115365191D01*
X114558510Y-115365098D01*
X114558500Y-115365000D01*
X114558500Y-114545000D01*
X114558510Y-114544902D01*
X114558538Y-114544809D01*
X114558584Y-114544722D01*
X114558646Y-114544646D01*
X114558722Y-114544584D01*
X114558809Y-114544538D01*
X114558902Y-114544510D01*
X114559000Y-114544500D01*
X116105000Y-114544500D01*
X116105098Y-114544510D01*
G37*
G36*
X116105098Y-116044510D02*
G01*
X116105191Y-116044538D01*
X116105278Y-116044584D01*
X116105354Y-116044646D01*
X116105416Y-116044722D01*
X116105462Y-116044809D01*
X116105490Y-116044902D01*
X116105500Y-116045000D01*
X116105500Y-116865190D01*
X116105490Y-116865288D01*
X116105462Y-116865381D01*
X116105416Y-116865468D01*
X116105354Y-116865544D01*
X116105278Y-116865606D01*
X116105191Y-116865652D01*
X116105098Y-116865680D01*
X116105000Y-116865690D01*
X114559000Y-116865500D01*
X114558902Y-116865490D01*
X114558809Y-116865462D01*
X114558722Y-116865416D01*
X114558646Y-116865354D01*
X114558584Y-116865278D01*
X114558538Y-116865191D01*
X114558510Y-116865097D01*
X114558500Y-116865000D01*
X114558500Y-116045000D01*
X114558510Y-116044902D01*
X114558538Y-116044809D01*
X114558584Y-116044722D01*
X114558646Y-116044646D01*
X114558722Y-116044584D01*
X114558809Y-116044538D01*
X114558902Y-116044510D01*
X114559000Y-116044500D01*
X116105000Y-116044500D01*
X116105098Y-116044510D01*
G37*
G36*
X110851098Y-116044510D02*
G01*
X110851191Y-116044538D01*
X110851278Y-116044584D01*
X110851354Y-116044646D01*
X110851416Y-116044722D01*
X110851462Y-116044809D01*
X110851490Y-116044902D01*
X110851500Y-116045000D01*
X110851500Y-116865000D01*
X110851490Y-116865098D01*
X110851462Y-116865191D01*
X110851416Y-116865278D01*
X110851354Y-116865354D01*
X110851278Y-116865416D01*
X110851191Y-116865462D01*
X110851098Y-116865490D01*
X110851000Y-116865500D01*
X109305000Y-116865500D01*
X109304902Y-116865490D01*
X109304809Y-116865462D01*
X109304722Y-116865416D01*
X109304646Y-116865354D01*
X109304584Y-116865278D01*
X109304538Y-116865191D01*
X109304510Y-116865098D01*
X109304500Y-116865000D01*
X109304500Y-116045000D01*
X109304510Y-116044902D01*
X109304538Y-116044809D01*
X109304584Y-116044722D01*
X109304646Y-116044646D01*
X109304722Y-116044584D01*
X109304809Y-116044538D01*
X109304902Y-116044510D01*
X109305000Y-116044500D01*
X110851000Y-116044500D01*
X110851098Y-116044510D01*
G37*
G36*
X110851098Y-114544510D02*
G01*
X110851191Y-114544538D01*
X110851278Y-114544584D01*
X110851354Y-114544646D01*
X110851416Y-114544722D01*
X110851462Y-114544809D01*
X110851490Y-114544902D01*
X110851500Y-114545000D01*
X110851500Y-115365000D01*
X110851490Y-115365098D01*
X110851462Y-115365191D01*
X110851416Y-115365278D01*
X110851354Y-115365354D01*
X110851278Y-115365416D01*
X110851191Y-115365462D01*
X110851098Y-115365490D01*
X110851000Y-115365500D01*
X109305000Y-115365500D01*
X109304902Y-115365490D01*
X109304809Y-115365462D01*
X109304722Y-115365416D01*
X109304646Y-115365354D01*
X109304584Y-115365278D01*
X109304538Y-115365191D01*
X109304510Y-115365098D01*
X109304500Y-115365000D01*
X109304500Y-114545000D01*
X109304510Y-114544902D01*
X109304538Y-114544809D01*
X109304584Y-114544722D01*
X109304646Y-114544646D01*
X109304722Y-114544584D01*
X109304809Y-114544538D01*
X109304902Y-114544510D01*
X109305000Y-114544500D01*
X110851000Y-114544500D01*
X110851098Y-114544510D01*
G37*
G36*
X97055098Y-114544510D02*
G01*
X97055191Y-114544538D01*
X97055278Y-114544584D01*
X97055354Y-114544646D01*
X97055416Y-114544722D01*
X97055462Y-114544809D01*
X97055490Y-114544902D01*
X97055500Y-114545000D01*
X97055500Y-115365000D01*
X97055490Y-115365098D01*
X97055462Y-115365191D01*
X97055416Y-115365278D01*
X97055354Y-115365354D01*
X97055278Y-115365416D01*
X97055191Y-115365462D01*
X97055098Y-115365490D01*
X97055000Y-115365500D01*
X95509000Y-115365500D01*
X95508902Y-115365490D01*
X95508809Y-115365462D01*
X95508722Y-115365416D01*
X95508646Y-115365354D01*
X95508584Y-115365278D01*
X95508538Y-115365191D01*
X95508510Y-115365098D01*
X95508500Y-115365000D01*
X95508500Y-114545000D01*
X95508510Y-114544902D01*
X95508538Y-114544809D01*
X95508584Y-114544722D01*
X95508646Y-114544646D01*
X95508722Y-114544584D01*
X95508809Y-114544538D01*
X95508902Y-114544510D01*
X95509000Y-114544500D01*
X97055000Y-114544500D01*
X97055098Y-114544510D01*
G37*
G36*
X97055098Y-116044510D02*
G01*
X97055191Y-116044538D01*
X97055278Y-116044584D01*
X97055354Y-116044646D01*
X97055416Y-116044722D01*
X97055462Y-116044809D01*
X97055490Y-116044902D01*
X97055500Y-116045000D01*
X97055500Y-116865190D01*
X97055490Y-116865288D01*
X97055462Y-116865381D01*
X97055416Y-116865468D01*
X97055354Y-116865544D01*
X97055278Y-116865606D01*
X97055191Y-116865652D01*
X97055098Y-116865680D01*
X97055000Y-116865690D01*
X95509000Y-116865500D01*
X95508902Y-116865490D01*
X95508809Y-116865462D01*
X95508722Y-116865416D01*
X95508646Y-116865354D01*
X95508584Y-116865278D01*
X95508538Y-116865191D01*
X95508510Y-116865097D01*
X95508500Y-116865000D01*
X95508500Y-116045000D01*
X95508510Y-116044902D01*
X95508538Y-116044809D01*
X95508584Y-116044722D01*
X95508646Y-116044646D01*
X95508722Y-116044584D01*
X95508809Y-116044538D01*
X95508902Y-116044510D01*
X95509000Y-116044500D01*
X97055000Y-116044500D01*
X97055098Y-116044510D01*
G37*
G36*
X91801098Y-116044510D02*
G01*
X91801191Y-116044538D01*
X91801278Y-116044584D01*
X91801354Y-116044646D01*
X91801416Y-116044722D01*
X91801462Y-116044809D01*
X91801490Y-116044902D01*
X91801500Y-116045000D01*
X91801500Y-116865000D01*
X91801490Y-116865098D01*
X91801462Y-116865191D01*
X91801416Y-116865278D01*
X91801354Y-116865354D01*
X91801278Y-116865416D01*
X91801191Y-116865462D01*
X91801098Y-116865490D01*
X91801000Y-116865500D01*
X90255000Y-116865500D01*
X90254902Y-116865490D01*
X90254809Y-116865462D01*
X90254722Y-116865416D01*
X90254646Y-116865354D01*
X90254584Y-116865278D01*
X90254538Y-116865191D01*
X90254510Y-116865098D01*
X90254500Y-116865000D01*
X90254500Y-116045000D01*
X90254510Y-116044902D01*
X90254538Y-116044809D01*
X90254584Y-116044722D01*
X90254646Y-116044646D01*
X90254722Y-116044584D01*
X90254809Y-116044538D01*
X90254902Y-116044510D01*
X90255000Y-116044500D01*
X91801000Y-116044500D01*
X91801098Y-116044510D01*
G37*
G36*
X91801098Y-114544510D02*
G01*
X91801191Y-114544538D01*
X91801278Y-114544584D01*
X91801354Y-114544646D01*
X91801416Y-114544722D01*
X91801462Y-114544809D01*
X91801490Y-114544902D01*
X91801500Y-114545000D01*
X91801500Y-115365000D01*
X91801490Y-115365098D01*
X91801462Y-115365191D01*
X91801416Y-115365278D01*
X91801354Y-115365354D01*
X91801278Y-115365416D01*
X91801191Y-115365462D01*
X91801098Y-115365490D01*
X91801000Y-115365500D01*
X90255000Y-115365500D01*
X90254902Y-115365490D01*
X90254809Y-115365462D01*
X90254722Y-115365416D01*
X90254646Y-115365354D01*
X90254584Y-115365278D01*
X90254538Y-115365191D01*
X90254510Y-115365098D01*
X90254500Y-115365000D01*
X90254500Y-114545000D01*
X90254510Y-114544902D01*
X90254538Y-114544809D01*
X90254584Y-114544722D01*
X90254646Y-114544646D01*
X90254722Y-114544584D01*
X90254809Y-114544538D01*
X90254902Y-114544510D01*
X90255000Y-114544500D01*
X91801000Y-114544500D01*
X91801098Y-114544510D01*
G37*
G36*
X78005098Y-114544510D02*
G01*
X78005191Y-114544538D01*
X78005278Y-114544584D01*
X78005354Y-114544646D01*
X78005416Y-114544722D01*
X78005462Y-114544809D01*
X78005490Y-114544902D01*
X78005500Y-114545000D01*
X78005500Y-115365000D01*
X78005490Y-115365098D01*
X78005462Y-115365191D01*
X78005416Y-115365278D01*
X78005354Y-115365354D01*
X78005278Y-115365416D01*
X78005191Y-115365462D01*
X78005098Y-115365490D01*
X78005000Y-115365500D01*
X76459000Y-115365500D01*
X76458902Y-115365490D01*
X76458809Y-115365462D01*
X76458722Y-115365416D01*
X76458646Y-115365354D01*
X76458584Y-115365278D01*
X76458538Y-115365191D01*
X76458510Y-115365098D01*
X76458500Y-115365000D01*
X76458500Y-114545000D01*
X76458510Y-114544902D01*
X76458538Y-114544809D01*
X76458584Y-114544722D01*
X76458646Y-114544646D01*
X76458722Y-114544584D01*
X76458809Y-114544538D01*
X76458902Y-114544510D01*
X76459000Y-114544500D01*
X78005000Y-114544500D01*
X78005098Y-114544510D01*
G37*
G36*
X78005098Y-116044510D02*
G01*
X78005191Y-116044538D01*
X78005278Y-116044584D01*
X78005354Y-116044646D01*
X78005416Y-116044722D01*
X78005462Y-116044809D01*
X78005490Y-116044902D01*
X78005500Y-116045000D01*
X78005500Y-116865190D01*
X78005490Y-116865288D01*
X78005462Y-116865381D01*
X78005416Y-116865468D01*
X78005354Y-116865544D01*
X78005278Y-116865606D01*
X78005191Y-116865652D01*
X78005098Y-116865680D01*
X78005000Y-116865690D01*
X76459000Y-116865500D01*
X76458902Y-116865490D01*
X76458809Y-116865462D01*
X76458722Y-116865416D01*
X76458646Y-116865354D01*
X76458584Y-116865278D01*
X76458538Y-116865191D01*
X76458510Y-116865097D01*
X76458500Y-116865000D01*
X76458500Y-116045000D01*
X76458510Y-116044902D01*
X76458538Y-116044809D01*
X76458584Y-116044722D01*
X76458646Y-116044646D01*
X76458722Y-116044584D01*
X76458809Y-116044538D01*
X76458902Y-116044510D01*
X76459000Y-116044500D01*
X78005000Y-116044500D01*
X78005098Y-116044510D01*
G37*
G36*
X72751098Y-116044510D02*
G01*
X72751191Y-116044538D01*
X72751278Y-116044584D01*
X72751354Y-116044646D01*
X72751416Y-116044722D01*
X72751462Y-116044809D01*
X72751490Y-116044902D01*
X72751500Y-116045000D01*
X72751500Y-116865000D01*
X72751490Y-116865098D01*
X72751462Y-116865191D01*
X72751416Y-116865278D01*
X72751354Y-116865354D01*
X72751278Y-116865416D01*
X72751191Y-116865462D01*
X72751098Y-116865490D01*
X72751000Y-116865500D01*
X71205000Y-116865500D01*
X71204902Y-116865490D01*
X71204809Y-116865462D01*
X71204722Y-116865416D01*
X71204646Y-116865354D01*
X71204584Y-116865278D01*
X71204538Y-116865191D01*
X71204510Y-116865098D01*
X71204500Y-116865000D01*
X71204500Y-116045000D01*
X71204510Y-116044902D01*
X71204538Y-116044809D01*
X71204584Y-116044722D01*
X71204646Y-116044646D01*
X71204722Y-116044584D01*
X71204809Y-116044538D01*
X71204902Y-116044510D01*
X71205000Y-116044500D01*
X72751000Y-116044500D01*
X72751098Y-116044510D01*
G37*
G36*
X72751098Y-114544510D02*
G01*
X72751191Y-114544538D01*
X72751278Y-114544584D01*
X72751354Y-114544646D01*
X72751416Y-114544722D01*
X72751462Y-114544809D01*
X72751490Y-114544902D01*
X72751500Y-114545000D01*
X72751500Y-115365000D01*
X72751490Y-115365098D01*
X72751462Y-115365191D01*
X72751416Y-115365278D01*
X72751354Y-115365354D01*
X72751278Y-115365416D01*
X72751191Y-115365462D01*
X72751098Y-115365490D01*
X72751000Y-115365500D01*
X71205000Y-115365500D01*
X71204902Y-115365490D01*
X71204809Y-115365462D01*
X71204722Y-115365416D01*
X71204646Y-115365354D01*
X71204584Y-115365278D01*
X71204538Y-115365191D01*
X71204510Y-115365098D01*
X71204500Y-115365000D01*
X71204500Y-114545000D01*
X71204510Y-114544902D01*
X71204538Y-114544809D01*
X71204584Y-114544722D01*
X71204646Y-114544646D01*
X71204722Y-114544584D01*
X71204809Y-114544538D01*
X71204902Y-114544510D01*
X71205000Y-114544500D01*
X72751000Y-114544500D01*
X72751098Y-114544510D01*
G37*
G36*
X116105098Y-95494510D02*
G01*
X116105191Y-95494538D01*
X116105278Y-95494584D01*
X116105354Y-95494646D01*
X116105416Y-95494722D01*
X116105462Y-95494809D01*
X116105490Y-95494902D01*
X116105500Y-95495000D01*
X116105500Y-96315000D01*
X116105490Y-96315098D01*
X116105462Y-96315191D01*
X116105416Y-96315278D01*
X116105354Y-96315354D01*
X116105278Y-96315416D01*
X116105191Y-96315462D01*
X116105098Y-96315490D01*
X116105000Y-96315500D01*
X114559000Y-96315500D01*
X114558902Y-96315490D01*
X114558809Y-96315462D01*
X114558722Y-96315416D01*
X114558646Y-96315354D01*
X114558584Y-96315278D01*
X114558538Y-96315191D01*
X114558510Y-96315098D01*
X114558500Y-96315000D01*
X114558500Y-95495000D01*
X114558510Y-95494902D01*
X114558538Y-95494809D01*
X114558584Y-95494722D01*
X114558646Y-95494646D01*
X114558722Y-95494584D01*
X114558809Y-95494538D01*
X114558902Y-95494510D01*
X114559000Y-95494500D01*
X116105000Y-95494500D01*
X116105098Y-95494510D01*
G37*
G36*
X116105098Y-96994510D02*
G01*
X116105191Y-96994538D01*
X116105278Y-96994584D01*
X116105354Y-96994646D01*
X116105416Y-96994722D01*
X116105462Y-96994809D01*
X116105490Y-96994902D01*
X116105500Y-96995000D01*
X116105500Y-97815190D01*
X116105490Y-97815288D01*
X116105462Y-97815381D01*
X116105416Y-97815468D01*
X116105354Y-97815544D01*
X116105278Y-97815606D01*
X116105191Y-97815652D01*
X116105098Y-97815680D01*
X116105000Y-97815690D01*
X114559000Y-97815500D01*
X114558902Y-97815490D01*
X114558809Y-97815462D01*
X114558722Y-97815416D01*
X114558646Y-97815354D01*
X114558584Y-97815278D01*
X114558538Y-97815191D01*
X114558510Y-97815097D01*
X114558500Y-97815000D01*
X114558500Y-96995000D01*
X114558510Y-96994902D01*
X114558538Y-96994809D01*
X114558584Y-96994722D01*
X114558646Y-96994646D01*
X114558722Y-96994584D01*
X114558809Y-96994538D01*
X114558902Y-96994510D01*
X114559000Y-96994500D01*
X116105000Y-96994500D01*
X116105098Y-96994510D01*
G37*
G36*
X110851098Y-96994510D02*
G01*
X110851191Y-96994538D01*
X110851278Y-96994584D01*
X110851354Y-96994646D01*
X110851416Y-96994722D01*
X110851462Y-96994809D01*
X110851490Y-96994902D01*
X110851500Y-96995000D01*
X110851500Y-97815000D01*
X110851490Y-97815098D01*
X110851462Y-97815191D01*
X110851416Y-97815278D01*
X110851354Y-97815354D01*
X110851278Y-97815416D01*
X110851191Y-97815462D01*
X110851098Y-97815490D01*
X110851000Y-97815500D01*
X109305000Y-97815500D01*
X109304902Y-97815490D01*
X109304809Y-97815462D01*
X109304722Y-97815416D01*
X109304646Y-97815354D01*
X109304584Y-97815278D01*
X109304538Y-97815191D01*
X109304510Y-97815098D01*
X109304500Y-97815000D01*
X109304500Y-96995000D01*
X109304510Y-96994902D01*
X109304538Y-96994809D01*
X109304584Y-96994722D01*
X109304646Y-96994646D01*
X109304722Y-96994584D01*
X109304809Y-96994538D01*
X109304902Y-96994510D01*
X109305000Y-96994500D01*
X110851000Y-96994500D01*
X110851098Y-96994510D01*
G37*
G36*
X110851098Y-95494510D02*
G01*
X110851191Y-95494538D01*
X110851278Y-95494584D01*
X110851354Y-95494646D01*
X110851416Y-95494722D01*
X110851462Y-95494809D01*
X110851490Y-95494902D01*
X110851500Y-95495000D01*
X110851500Y-96315000D01*
X110851490Y-96315098D01*
X110851462Y-96315191D01*
X110851416Y-96315278D01*
X110851354Y-96315354D01*
X110851278Y-96315416D01*
X110851191Y-96315462D01*
X110851098Y-96315490D01*
X110851000Y-96315500D01*
X109305000Y-96315500D01*
X109304902Y-96315490D01*
X109304809Y-96315462D01*
X109304722Y-96315416D01*
X109304646Y-96315354D01*
X109304584Y-96315278D01*
X109304538Y-96315191D01*
X109304510Y-96315098D01*
X109304500Y-96315000D01*
X109304500Y-95495000D01*
X109304510Y-95494902D01*
X109304538Y-95494809D01*
X109304584Y-95494722D01*
X109304646Y-95494646D01*
X109304722Y-95494584D01*
X109304809Y-95494538D01*
X109304902Y-95494510D01*
X109305000Y-95494500D01*
X110851000Y-95494500D01*
X110851098Y-95494510D01*
G37*
G36*
X78005098Y-95494510D02*
G01*
X78005191Y-95494538D01*
X78005278Y-95494584D01*
X78005354Y-95494646D01*
X78005416Y-95494722D01*
X78005462Y-95494809D01*
X78005490Y-95494902D01*
X78005500Y-95495000D01*
X78005500Y-96315000D01*
X78005490Y-96315098D01*
X78005462Y-96315191D01*
X78005416Y-96315278D01*
X78005354Y-96315354D01*
X78005278Y-96315416D01*
X78005191Y-96315462D01*
X78005098Y-96315490D01*
X78005000Y-96315500D01*
X76459000Y-96315500D01*
X76458902Y-96315490D01*
X76458809Y-96315462D01*
X76458722Y-96315416D01*
X76458646Y-96315354D01*
X76458584Y-96315278D01*
X76458538Y-96315191D01*
X76458510Y-96315098D01*
X76458500Y-96315000D01*
X76458500Y-95495000D01*
X76458510Y-95494902D01*
X76458538Y-95494809D01*
X76458584Y-95494722D01*
X76458646Y-95494646D01*
X76458722Y-95494584D01*
X76458809Y-95494538D01*
X76458902Y-95494510D01*
X76459000Y-95494500D01*
X78005000Y-95494500D01*
X78005098Y-95494510D01*
G37*
G36*
X78005098Y-96994510D02*
G01*
X78005191Y-96994538D01*
X78005278Y-96994584D01*
X78005354Y-96994646D01*
X78005416Y-96994722D01*
X78005462Y-96994809D01*
X78005490Y-96994902D01*
X78005500Y-96995000D01*
X78005500Y-97815190D01*
X78005490Y-97815288D01*
X78005462Y-97815381D01*
X78005416Y-97815468D01*
X78005354Y-97815544D01*
X78005278Y-97815606D01*
X78005191Y-97815652D01*
X78005098Y-97815680D01*
X78005000Y-97815690D01*
X76459000Y-97815500D01*
X76458902Y-97815490D01*
X76458809Y-97815462D01*
X76458722Y-97815416D01*
X76458646Y-97815354D01*
X76458584Y-97815278D01*
X76458538Y-97815191D01*
X76458510Y-97815097D01*
X76458500Y-97815000D01*
X76458500Y-96995000D01*
X76458510Y-96994902D01*
X76458538Y-96994809D01*
X76458584Y-96994722D01*
X76458646Y-96994646D01*
X76458722Y-96994584D01*
X76458809Y-96994538D01*
X76458902Y-96994510D01*
X76459000Y-96994500D01*
X78005000Y-96994500D01*
X78005098Y-96994510D01*
G37*
G36*
X72751098Y-96994510D02*
G01*
X72751191Y-96994538D01*
X72751278Y-96994584D01*
X72751354Y-96994646D01*
X72751416Y-96994722D01*
X72751462Y-96994809D01*
X72751490Y-96994902D01*
X72751500Y-96995000D01*
X72751500Y-97815000D01*
X72751490Y-97815098D01*
X72751462Y-97815191D01*
X72751416Y-97815278D01*
X72751354Y-97815354D01*
X72751278Y-97815416D01*
X72751191Y-97815462D01*
X72751098Y-97815490D01*
X72751000Y-97815500D01*
X71205000Y-97815500D01*
X71204902Y-97815490D01*
X71204809Y-97815462D01*
X71204722Y-97815416D01*
X71204646Y-97815354D01*
X71204584Y-97815278D01*
X71204538Y-97815191D01*
X71204510Y-97815098D01*
X71204500Y-97815000D01*
X71204500Y-96995000D01*
X71204510Y-96994902D01*
X71204538Y-96994809D01*
X71204584Y-96994722D01*
X71204646Y-96994646D01*
X71204722Y-96994584D01*
X71204809Y-96994538D01*
X71204902Y-96994510D01*
X71205000Y-96994500D01*
X72751000Y-96994500D01*
X72751098Y-96994510D01*
G37*
G36*
X72751098Y-95494510D02*
G01*
X72751191Y-95494538D01*
X72751278Y-95494584D01*
X72751354Y-95494646D01*
X72751416Y-95494722D01*
X72751462Y-95494809D01*
X72751490Y-95494902D01*
X72751500Y-95495000D01*
X72751500Y-96315000D01*
X72751490Y-96315098D01*
X72751462Y-96315191D01*
X72751416Y-96315278D01*
X72751354Y-96315354D01*
X72751278Y-96315416D01*
X72751191Y-96315462D01*
X72751098Y-96315490D01*
X72751000Y-96315500D01*
X71205000Y-96315500D01*
X71204902Y-96315490D01*
X71204809Y-96315462D01*
X71204722Y-96315416D01*
X71204646Y-96315354D01*
X71204584Y-96315278D01*
X71204538Y-96315191D01*
X71204510Y-96315098D01*
X71204500Y-96315000D01*
X71204500Y-95495000D01*
X71204510Y-95494902D01*
X71204538Y-95494809D01*
X71204584Y-95494722D01*
X71204646Y-95494646D01*
X71204722Y-95494584D01*
X71204809Y-95494538D01*
X71204902Y-95494510D01*
X71205000Y-95494500D01*
X72751000Y-95494500D01*
X72751098Y-95494510D01*
G37*
G36*
X116105098Y-76444510D02*
G01*
X116105191Y-76444538D01*
X116105278Y-76444584D01*
X116105354Y-76444646D01*
X116105416Y-76444722D01*
X116105462Y-76444809D01*
X116105490Y-76444902D01*
X116105500Y-76445000D01*
X116105500Y-77265000D01*
X116105490Y-77265098D01*
X116105462Y-77265191D01*
X116105416Y-77265278D01*
X116105354Y-77265354D01*
X116105278Y-77265416D01*
X116105191Y-77265462D01*
X116105098Y-77265490D01*
X116105000Y-77265500D01*
X114559000Y-77265500D01*
X114558902Y-77265490D01*
X114558809Y-77265462D01*
X114558722Y-77265416D01*
X114558646Y-77265354D01*
X114558584Y-77265278D01*
X114558538Y-77265191D01*
X114558510Y-77265098D01*
X114558500Y-77265000D01*
X114558500Y-76445000D01*
X114558510Y-76444902D01*
X114558538Y-76444809D01*
X114558584Y-76444722D01*
X114558646Y-76444646D01*
X114558722Y-76444584D01*
X114558809Y-76444538D01*
X114558902Y-76444510D01*
X114559000Y-76444500D01*
X116105000Y-76444500D01*
X116105098Y-76444510D01*
G37*
G36*
X116105098Y-77944510D02*
G01*
X116105191Y-77944538D01*
X116105278Y-77944584D01*
X116105354Y-77944646D01*
X116105416Y-77944722D01*
X116105462Y-77944809D01*
X116105490Y-77944902D01*
X116105500Y-77945000D01*
X116105500Y-78765190D01*
X116105490Y-78765288D01*
X116105462Y-78765381D01*
X116105416Y-78765468D01*
X116105354Y-78765544D01*
X116105278Y-78765606D01*
X116105191Y-78765652D01*
X116105098Y-78765680D01*
X116105000Y-78765690D01*
X114559000Y-78765500D01*
X114558902Y-78765490D01*
X114558809Y-78765462D01*
X114558722Y-78765416D01*
X114558646Y-78765354D01*
X114558584Y-78765278D01*
X114558538Y-78765191D01*
X114558510Y-78765097D01*
X114558500Y-78765000D01*
X114558500Y-77945000D01*
X114558510Y-77944902D01*
X114558538Y-77944809D01*
X114558584Y-77944722D01*
X114558646Y-77944646D01*
X114558722Y-77944584D01*
X114558809Y-77944538D01*
X114558902Y-77944510D01*
X114559000Y-77944500D01*
X116105000Y-77944500D01*
X116105098Y-77944510D01*
G37*
G36*
X110851098Y-77944510D02*
G01*
X110851191Y-77944538D01*
X110851278Y-77944584D01*
X110851354Y-77944646D01*
X110851416Y-77944722D01*
X110851462Y-77944809D01*
X110851490Y-77944902D01*
X110851500Y-77945000D01*
X110851500Y-78765000D01*
X110851490Y-78765098D01*
X110851462Y-78765191D01*
X110851416Y-78765278D01*
X110851354Y-78765354D01*
X110851278Y-78765416D01*
X110851191Y-78765462D01*
X110851098Y-78765490D01*
X110851000Y-78765500D01*
X109305000Y-78765500D01*
X109304902Y-78765490D01*
X109304809Y-78765462D01*
X109304722Y-78765416D01*
X109304646Y-78765354D01*
X109304584Y-78765278D01*
X109304538Y-78765191D01*
X109304510Y-78765098D01*
X109304500Y-78765000D01*
X109304500Y-77945000D01*
X109304510Y-77944902D01*
X109304538Y-77944809D01*
X109304584Y-77944722D01*
X109304646Y-77944646D01*
X109304722Y-77944584D01*
X109304809Y-77944538D01*
X109304902Y-77944510D01*
X109305000Y-77944500D01*
X110851000Y-77944500D01*
X110851098Y-77944510D01*
G37*
G36*
X110851098Y-76444510D02*
G01*
X110851191Y-76444538D01*
X110851278Y-76444584D01*
X110851354Y-76444646D01*
X110851416Y-76444722D01*
X110851462Y-76444809D01*
X110851490Y-76444902D01*
X110851500Y-76445000D01*
X110851500Y-77265000D01*
X110851490Y-77265098D01*
X110851462Y-77265191D01*
X110851416Y-77265278D01*
X110851354Y-77265354D01*
X110851278Y-77265416D01*
X110851191Y-77265462D01*
X110851098Y-77265490D01*
X110851000Y-77265500D01*
X109305000Y-77265500D01*
X109304902Y-77265490D01*
X109304809Y-77265462D01*
X109304722Y-77265416D01*
X109304646Y-77265354D01*
X109304584Y-77265278D01*
X109304538Y-77265191D01*
X109304510Y-77265098D01*
X109304500Y-77265000D01*
X109304500Y-76445000D01*
X109304510Y-76444902D01*
X109304538Y-76444809D01*
X109304584Y-76444722D01*
X109304646Y-76444646D01*
X109304722Y-76444584D01*
X109304809Y-76444538D01*
X109304902Y-76444510D01*
X109305000Y-76444500D01*
X110851000Y-76444500D01*
X110851098Y-76444510D01*
G37*
G36*
X78005098Y-76444510D02*
G01*
X78005191Y-76444538D01*
X78005278Y-76444584D01*
X78005354Y-76444646D01*
X78005416Y-76444722D01*
X78005462Y-76444809D01*
X78005490Y-76444902D01*
X78005500Y-76445000D01*
X78005500Y-77265000D01*
X78005490Y-77265098D01*
X78005462Y-77265191D01*
X78005416Y-77265278D01*
X78005354Y-77265354D01*
X78005278Y-77265416D01*
X78005191Y-77265462D01*
X78005098Y-77265490D01*
X78005000Y-77265500D01*
X76459000Y-77265500D01*
X76458902Y-77265490D01*
X76458809Y-77265462D01*
X76458722Y-77265416D01*
X76458646Y-77265354D01*
X76458584Y-77265278D01*
X76458538Y-77265191D01*
X76458510Y-77265098D01*
X76458500Y-77265000D01*
X76458500Y-76445000D01*
X76458510Y-76444902D01*
X76458538Y-76444809D01*
X76458584Y-76444722D01*
X76458646Y-76444646D01*
X76458722Y-76444584D01*
X76458809Y-76444538D01*
X76458902Y-76444510D01*
X76459000Y-76444500D01*
X78005000Y-76444500D01*
X78005098Y-76444510D01*
G37*
G36*
X78005098Y-77944510D02*
G01*
X78005191Y-77944538D01*
X78005278Y-77944584D01*
X78005354Y-77944646D01*
X78005416Y-77944722D01*
X78005462Y-77944809D01*
X78005490Y-77944902D01*
X78005500Y-77945000D01*
X78005500Y-78765190D01*
X78005490Y-78765288D01*
X78005462Y-78765381D01*
X78005416Y-78765468D01*
X78005354Y-78765544D01*
X78005278Y-78765606D01*
X78005191Y-78765652D01*
X78005098Y-78765680D01*
X78005000Y-78765690D01*
X76459000Y-78765500D01*
X76458902Y-78765490D01*
X76458809Y-78765462D01*
X76458722Y-78765416D01*
X76458646Y-78765354D01*
X76458584Y-78765278D01*
X76458538Y-78765191D01*
X76458510Y-78765097D01*
X76458500Y-78765000D01*
X76458500Y-77945000D01*
X76458510Y-77944902D01*
X76458538Y-77944809D01*
X76458584Y-77944722D01*
X76458646Y-77944646D01*
X76458722Y-77944584D01*
X76458809Y-77944538D01*
X76458902Y-77944510D01*
X76459000Y-77944500D01*
X78005000Y-77944500D01*
X78005098Y-77944510D01*
G37*
G36*
X72751098Y-77944510D02*
G01*
X72751191Y-77944538D01*
X72751278Y-77944584D01*
X72751354Y-77944646D01*
X72751416Y-77944722D01*
X72751462Y-77944809D01*
X72751490Y-77944902D01*
X72751500Y-77945000D01*
X72751500Y-78765000D01*
X72751490Y-78765098D01*
X72751462Y-78765191D01*
X72751416Y-78765278D01*
X72751354Y-78765354D01*
X72751278Y-78765416D01*
X72751191Y-78765462D01*
X72751098Y-78765490D01*
X72751000Y-78765500D01*
X71205000Y-78765500D01*
X71204902Y-78765490D01*
X71204809Y-78765462D01*
X71204722Y-78765416D01*
X71204646Y-78765354D01*
X71204584Y-78765278D01*
X71204538Y-78765191D01*
X71204510Y-78765098D01*
X71204500Y-78765000D01*
X71204500Y-77945000D01*
X71204510Y-77944902D01*
X71204538Y-77944809D01*
X71204584Y-77944722D01*
X71204646Y-77944646D01*
X71204722Y-77944584D01*
X71204809Y-77944538D01*
X71204902Y-77944510D01*
X71205000Y-77944500D01*
X72751000Y-77944500D01*
X72751098Y-77944510D01*
G37*
G36*
X72751098Y-76444510D02*
G01*
X72751191Y-76444538D01*
X72751278Y-76444584D01*
X72751354Y-76444646D01*
X72751416Y-76444722D01*
X72751462Y-76444809D01*
X72751490Y-76444902D01*
X72751500Y-76445000D01*
X72751500Y-77265000D01*
X72751490Y-77265098D01*
X72751462Y-77265191D01*
X72751416Y-77265278D01*
X72751354Y-77265354D01*
X72751278Y-77265416D01*
X72751191Y-77265462D01*
X72751098Y-77265490D01*
X72751000Y-77265500D01*
X71205000Y-77265500D01*
X71204902Y-77265490D01*
X71204809Y-77265462D01*
X71204722Y-77265416D01*
X71204646Y-77265354D01*
X71204584Y-77265278D01*
X71204538Y-77265191D01*
X71204510Y-77265098D01*
X71204500Y-77265000D01*
X71204500Y-76445000D01*
X71204510Y-76444902D01*
X71204538Y-76444809D01*
X71204584Y-76444722D01*
X71204646Y-76444646D01*
X71204722Y-76444584D01*
X71204809Y-76444538D01*
X71204902Y-76444510D01*
X71205000Y-76444500D01*
X72751000Y-76444500D01*
X72751098Y-76444510D01*
G37*
G36*
X116105098Y-57394510D02*
G01*
X116105191Y-57394538D01*
X116105278Y-57394584D01*
X116105354Y-57394646D01*
X116105416Y-57394722D01*
X116105462Y-57394809D01*
X116105490Y-57394902D01*
X116105500Y-57395000D01*
X116105500Y-58215000D01*
X116105490Y-58215098D01*
X116105462Y-58215191D01*
X116105416Y-58215278D01*
X116105354Y-58215354D01*
X116105278Y-58215416D01*
X116105191Y-58215462D01*
X116105098Y-58215490D01*
X116105000Y-58215500D01*
X114559000Y-58215500D01*
X114558902Y-58215490D01*
X114558809Y-58215462D01*
X114558722Y-58215416D01*
X114558646Y-58215354D01*
X114558584Y-58215278D01*
X114558538Y-58215191D01*
X114558510Y-58215098D01*
X114558500Y-58215000D01*
X114558500Y-57395000D01*
X114558510Y-57394902D01*
X114558538Y-57394809D01*
X114558584Y-57394722D01*
X114558646Y-57394646D01*
X114558722Y-57394584D01*
X114558809Y-57394538D01*
X114558902Y-57394510D01*
X114559000Y-57394500D01*
X116105000Y-57394500D01*
X116105098Y-57394510D01*
G37*
G36*
X116105098Y-58894510D02*
G01*
X116105191Y-58894538D01*
X116105278Y-58894584D01*
X116105354Y-58894646D01*
X116105416Y-58894722D01*
X116105462Y-58894809D01*
X116105490Y-58894902D01*
X116105500Y-58895000D01*
X116105500Y-59715190D01*
X116105490Y-59715288D01*
X116105462Y-59715381D01*
X116105416Y-59715468D01*
X116105354Y-59715544D01*
X116105278Y-59715606D01*
X116105191Y-59715652D01*
X116105098Y-59715680D01*
X116105000Y-59715690D01*
X114559000Y-59715500D01*
X114558902Y-59715490D01*
X114558809Y-59715462D01*
X114558722Y-59715416D01*
X114558646Y-59715354D01*
X114558584Y-59715278D01*
X114558538Y-59715191D01*
X114558510Y-59715097D01*
X114558500Y-59715000D01*
X114558500Y-58895000D01*
X114558510Y-58894902D01*
X114558538Y-58894809D01*
X114558584Y-58894722D01*
X114558646Y-58894646D01*
X114558722Y-58894584D01*
X114558809Y-58894538D01*
X114558902Y-58894510D01*
X114559000Y-58894500D01*
X116105000Y-58894500D01*
X116105098Y-58894510D01*
G37*
G36*
X110851098Y-58894510D02*
G01*
X110851191Y-58894538D01*
X110851278Y-58894584D01*
X110851354Y-58894646D01*
X110851416Y-58894722D01*
X110851462Y-58894809D01*
X110851490Y-58894902D01*
X110851500Y-58895000D01*
X110851500Y-59715000D01*
X110851490Y-59715098D01*
X110851462Y-59715191D01*
X110851416Y-59715278D01*
X110851354Y-59715354D01*
X110851278Y-59715416D01*
X110851191Y-59715462D01*
X110851098Y-59715490D01*
X110851000Y-59715500D01*
X109305000Y-59715500D01*
X109304902Y-59715490D01*
X109304809Y-59715462D01*
X109304722Y-59715416D01*
X109304646Y-59715354D01*
X109304584Y-59715278D01*
X109304538Y-59715191D01*
X109304510Y-59715098D01*
X109304500Y-59715000D01*
X109304500Y-58895000D01*
X109304510Y-58894902D01*
X109304538Y-58894809D01*
X109304584Y-58894722D01*
X109304646Y-58894646D01*
X109304722Y-58894584D01*
X109304809Y-58894538D01*
X109304902Y-58894510D01*
X109305000Y-58894500D01*
X110851000Y-58894500D01*
X110851098Y-58894510D01*
G37*
G36*
X110851098Y-57394510D02*
G01*
X110851191Y-57394538D01*
X110851278Y-57394584D01*
X110851354Y-57394646D01*
X110851416Y-57394722D01*
X110851462Y-57394809D01*
X110851490Y-57394902D01*
X110851500Y-57395000D01*
X110851500Y-58215000D01*
X110851490Y-58215098D01*
X110851462Y-58215191D01*
X110851416Y-58215278D01*
X110851354Y-58215354D01*
X110851278Y-58215416D01*
X110851191Y-58215462D01*
X110851098Y-58215490D01*
X110851000Y-58215500D01*
X109305000Y-58215500D01*
X109304902Y-58215490D01*
X109304809Y-58215462D01*
X109304722Y-58215416D01*
X109304646Y-58215354D01*
X109304584Y-58215278D01*
X109304538Y-58215191D01*
X109304510Y-58215098D01*
X109304500Y-58215000D01*
X109304500Y-57395000D01*
X109304510Y-57394902D01*
X109304538Y-57394809D01*
X109304584Y-57394722D01*
X109304646Y-57394646D01*
X109304722Y-57394584D01*
X109304809Y-57394538D01*
X109304902Y-57394510D01*
X109305000Y-57394500D01*
X110851000Y-57394500D01*
X110851098Y-57394510D01*
G37*
G36*
X97055098Y-57394510D02*
G01*
X97055191Y-57394538D01*
X97055278Y-57394584D01*
X97055354Y-57394646D01*
X97055416Y-57394722D01*
X97055462Y-57394809D01*
X97055490Y-57394902D01*
X97055500Y-57395000D01*
X97055500Y-58215000D01*
X97055490Y-58215098D01*
X97055462Y-58215191D01*
X97055416Y-58215278D01*
X97055354Y-58215354D01*
X97055278Y-58215416D01*
X97055191Y-58215462D01*
X97055098Y-58215490D01*
X97055000Y-58215500D01*
X95509000Y-58215500D01*
X95508902Y-58215490D01*
X95508809Y-58215462D01*
X95508722Y-58215416D01*
X95508646Y-58215354D01*
X95508584Y-58215278D01*
X95508538Y-58215191D01*
X95508510Y-58215098D01*
X95508500Y-58215000D01*
X95508500Y-57395000D01*
X95508510Y-57394902D01*
X95508538Y-57394809D01*
X95508584Y-57394722D01*
X95508646Y-57394646D01*
X95508722Y-57394584D01*
X95508809Y-57394538D01*
X95508902Y-57394510D01*
X95509000Y-57394500D01*
X97055000Y-57394500D01*
X97055098Y-57394510D01*
G37*
G36*
X97055098Y-58894510D02*
G01*
X97055191Y-58894538D01*
X97055278Y-58894584D01*
X97055354Y-58894646D01*
X97055416Y-58894722D01*
X97055462Y-58894809D01*
X97055490Y-58894902D01*
X97055500Y-58895000D01*
X97055500Y-59715190D01*
X97055490Y-59715288D01*
X97055462Y-59715381D01*
X97055416Y-59715468D01*
X97055354Y-59715544D01*
X97055278Y-59715606D01*
X97055191Y-59715652D01*
X97055098Y-59715680D01*
X97055000Y-59715690D01*
X95509000Y-59715500D01*
X95508902Y-59715490D01*
X95508809Y-59715462D01*
X95508722Y-59715416D01*
X95508646Y-59715354D01*
X95508584Y-59715278D01*
X95508538Y-59715191D01*
X95508510Y-59715097D01*
X95508500Y-59715000D01*
X95508500Y-58895000D01*
X95508510Y-58894902D01*
X95508538Y-58894809D01*
X95508584Y-58894722D01*
X95508646Y-58894646D01*
X95508722Y-58894584D01*
X95508809Y-58894538D01*
X95508902Y-58894510D01*
X95509000Y-58894500D01*
X97055000Y-58894500D01*
X97055098Y-58894510D01*
G37*
G36*
X91801098Y-58894510D02*
G01*
X91801191Y-58894538D01*
X91801278Y-58894584D01*
X91801354Y-58894646D01*
X91801416Y-58894722D01*
X91801462Y-58894809D01*
X91801490Y-58894902D01*
X91801500Y-58895000D01*
X91801500Y-59715000D01*
X91801490Y-59715098D01*
X91801462Y-59715191D01*
X91801416Y-59715278D01*
X91801354Y-59715354D01*
X91801278Y-59715416D01*
X91801191Y-59715462D01*
X91801098Y-59715490D01*
X91801000Y-59715500D01*
X90255000Y-59715500D01*
X90254902Y-59715490D01*
X90254809Y-59715462D01*
X90254722Y-59715416D01*
X90254646Y-59715354D01*
X90254584Y-59715278D01*
X90254538Y-59715191D01*
X90254510Y-59715098D01*
X90254500Y-59715000D01*
X90254500Y-58895000D01*
X90254510Y-58894902D01*
X90254538Y-58894809D01*
X90254584Y-58894722D01*
X90254646Y-58894646D01*
X90254722Y-58894584D01*
X90254809Y-58894538D01*
X90254902Y-58894510D01*
X90255000Y-58894500D01*
X91801000Y-58894500D01*
X91801098Y-58894510D01*
G37*
G36*
X91801098Y-57394510D02*
G01*
X91801191Y-57394538D01*
X91801278Y-57394584D01*
X91801354Y-57394646D01*
X91801416Y-57394722D01*
X91801462Y-57394809D01*
X91801490Y-57394902D01*
X91801500Y-57395000D01*
X91801500Y-58215000D01*
X91801490Y-58215098D01*
X91801462Y-58215191D01*
X91801416Y-58215278D01*
X91801354Y-58215354D01*
X91801278Y-58215416D01*
X91801191Y-58215462D01*
X91801098Y-58215490D01*
X91801000Y-58215500D01*
X90255000Y-58215500D01*
X90254902Y-58215490D01*
X90254809Y-58215462D01*
X90254722Y-58215416D01*
X90254646Y-58215354D01*
X90254584Y-58215278D01*
X90254538Y-58215191D01*
X90254510Y-58215098D01*
X90254500Y-58215000D01*
X90254500Y-57395000D01*
X90254510Y-57394902D01*
X90254538Y-57394809D01*
X90254584Y-57394722D01*
X90254646Y-57394646D01*
X90254722Y-57394584D01*
X90254809Y-57394538D01*
X90254902Y-57394510D01*
X90255000Y-57394500D01*
X91801000Y-57394500D01*
X91801098Y-57394510D01*
G37*
G36*
X78005098Y-57394510D02*
G01*
X78005191Y-57394538D01*
X78005278Y-57394584D01*
X78005354Y-57394646D01*
X78005416Y-57394722D01*
X78005462Y-57394809D01*
X78005490Y-57394902D01*
X78005500Y-57395000D01*
X78005500Y-58215000D01*
X78005490Y-58215098D01*
X78005462Y-58215191D01*
X78005416Y-58215278D01*
X78005354Y-58215354D01*
X78005278Y-58215416D01*
X78005191Y-58215462D01*
X78005098Y-58215490D01*
X78005000Y-58215500D01*
X76459000Y-58215500D01*
X76458902Y-58215490D01*
X76458809Y-58215462D01*
X76458722Y-58215416D01*
X76458646Y-58215354D01*
X76458584Y-58215278D01*
X76458538Y-58215191D01*
X76458510Y-58215098D01*
X76458500Y-58215000D01*
X76458500Y-57395000D01*
X76458510Y-57394902D01*
X76458538Y-57394809D01*
X76458584Y-57394722D01*
X76458646Y-57394646D01*
X76458722Y-57394584D01*
X76458809Y-57394538D01*
X76458902Y-57394510D01*
X76459000Y-57394500D01*
X78005000Y-57394500D01*
X78005098Y-57394510D01*
G37*
G36*
X78005098Y-58894510D02*
G01*
X78005191Y-58894538D01*
X78005278Y-58894584D01*
X78005354Y-58894646D01*
X78005416Y-58894722D01*
X78005462Y-58894809D01*
X78005490Y-58894902D01*
X78005500Y-58895000D01*
X78005500Y-59715190D01*
X78005490Y-59715288D01*
X78005462Y-59715381D01*
X78005416Y-59715468D01*
X78005354Y-59715544D01*
X78005278Y-59715606D01*
X78005191Y-59715652D01*
X78005098Y-59715680D01*
X78005000Y-59715690D01*
X76459000Y-59715500D01*
X76458902Y-59715490D01*
X76458809Y-59715462D01*
X76458722Y-59715416D01*
X76458646Y-59715354D01*
X76458584Y-59715278D01*
X76458538Y-59715191D01*
X76458510Y-59715097D01*
X76458500Y-59715000D01*
X76458500Y-58895000D01*
X76458510Y-58894902D01*
X76458538Y-58894809D01*
X76458584Y-58894722D01*
X76458646Y-58894646D01*
X76458722Y-58894584D01*
X76458809Y-58894538D01*
X76458902Y-58894510D01*
X76459000Y-58894500D01*
X78005000Y-58894500D01*
X78005098Y-58894510D01*
G37*
G36*
X72751098Y-58894510D02*
G01*
X72751191Y-58894538D01*
X72751278Y-58894584D01*
X72751354Y-58894646D01*
X72751416Y-58894722D01*
X72751462Y-58894809D01*
X72751490Y-58894902D01*
X72751500Y-58895000D01*
X72751500Y-59715000D01*
X72751490Y-59715098D01*
X72751462Y-59715191D01*
X72751416Y-59715278D01*
X72751354Y-59715354D01*
X72751278Y-59715416D01*
X72751191Y-59715462D01*
X72751098Y-59715490D01*
X72751000Y-59715500D01*
X71205000Y-59715500D01*
X71204902Y-59715490D01*
X71204809Y-59715462D01*
X71204722Y-59715416D01*
X71204646Y-59715354D01*
X71204584Y-59715278D01*
X71204538Y-59715191D01*
X71204510Y-59715098D01*
X71204500Y-59715000D01*
X71204500Y-58895000D01*
X71204510Y-58894902D01*
X71204538Y-58894809D01*
X71204584Y-58894722D01*
X71204646Y-58894646D01*
X71204722Y-58894584D01*
X71204809Y-58894538D01*
X71204902Y-58894510D01*
X71205000Y-58894500D01*
X72751000Y-58894500D01*
X72751098Y-58894510D01*
G37*
G36*
X72751098Y-57394510D02*
G01*
X72751191Y-57394538D01*
X72751278Y-57394584D01*
X72751354Y-57394646D01*
X72751416Y-57394722D01*
X72751462Y-57394809D01*
X72751490Y-57394902D01*
X72751500Y-57395000D01*
X72751500Y-58215000D01*
X72751490Y-58215098D01*
X72751462Y-58215191D01*
X72751416Y-58215278D01*
X72751354Y-58215354D01*
X72751278Y-58215416D01*
X72751191Y-58215462D01*
X72751098Y-58215490D01*
X72751000Y-58215500D01*
X71205000Y-58215500D01*
X71204902Y-58215490D01*
X71204809Y-58215462D01*
X71204722Y-58215416D01*
X71204646Y-58215354D01*
X71204584Y-58215278D01*
X71204538Y-58215191D01*
X71204510Y-58215098D01*
X71204500Y-58215000D01*
X71204500Y-57395000D01*
X71204510Y-57394902D01*
X71204538Y-57394809D01*
X71204584Y-57394722D01*
X71204646Y-57394646D01*
X71204722Y-57394584D01*
X71204809Y-57394538D01*
X71204902Y-57394510D01*
X71205000Y-57394500D01*
X72751000Y-57394500D01*
X72751098Y-57394510D01*
G37*
G36*
X135155098Y-57394510D02*
G01*
X135155191Y-57394538D01*
X135155278Y-57394584D01*
X135155354Y-57394646D01*
X135155416Y-57394722D01*
X135155462Y-57394809D01*
X135155490Y-57394902D01*
X135155500Y-57395000D01*
X135155500Y-58215000D01*
X135155490Y-58215098D01*
X135155462Y-58215191D01*
X135155416Y-58215278D01*
X135155354Y-58215354D01*
X135155278Y-58215416D01*
X135155191Y-58215462D01*
X135155098Y-58215490D01*
X135155000Y-58215500D01*
X133609000Y-58215500D01*
X133608902Y-58215490D01*
X133608809Y-58215462D01*
X133608722Y-58215416D01*
X133608646Y-58215354D01*
X133608584Y-58215278D01*
X133608538Y-58215191D01*
X133608510Y-58215098D01*
X133608500Y-58215000D01*
X133608500Y-57395000D01*
X133608510Y-57394902D01*
X133608538Y-57394809D01*
X133608584Y-57394722D01*
X133608646Y-57394646D01*
X133608722Y-57394584D01*
X133608809Y-57394538D01*
X133608902Y-57394510D01*
X133609000Y-57394500D01*
X135155000Y-57394500D01*
X135155098Y-57394510D01*
G37*
G36*
X135155098Y-58894510D02*
G01*
X135155191Y-58894538D01*
X135155278Y-58894584D01*
X135155354Y-58894646D01*
X135155416Y-58894722D01*
X135155462Y-58894809D01*
X135155490Y-58894902D01*
X135155500Y-58895000D01*
X135155500Y-59715190D01*
X135155490Y-59715288D01*
X135155462Y-59715381D01*
X135155416Y-59715468D01*
X135155354Y-59715544D01*
X135155278Y-59715606D01*
X135155191Y-59715652D01*
X135155098Y-59715680D01*
X135155000Y-59715690D01*
X133609000Y-59715500D01*
X133608902Y-59715490D01*
X133608809Y-59715462D01*
X133608722Y-59715416D01*
X133608646Y-59715354D01*
X133608584Y-59715278D01*
X133608538Y-59715191D01*
X133608510Y-59715097D01*
X133608500Y-59715000D01*
X133608500Y-58895000D01*
X133608510Y-58894902D01*
X133608538Y-58894809D01*
X133608584Y-58894722D01*
X133608646Y-58894646D01*
X133608722Y-58894584D01*
X133608809Y-58894538D01*
X133608902Y-58894510D01*
X133609000Y-58894500D01*
X135155000Y-58894500D01*
X135155098Y-58894510D01*
G37*
G36*
X129901098Y-58894510D02*
G01*
X129901191Y-58894538D01*
X129901278Y-58894584D01*
X129901354Y-58894646D01*
X129901416Y-58894722D01*
X129901462Y-58894809D01*
X129901490Y-58894902D01*
X129901500Y-58895000D01*
X129901500Y-59715000D01*
X129901490Y-59715098D01*
X129901462Y-59715191D01*
X129901416Y-59715278D01*
X129901354Y-59715354D01*
X129901278Y-59715416D01*
X129901191Y-59715462D01*
X129901098Y-59715490D01*
X129901000Y-59715500D01*
X128355000Y-59715500D01*
X128354902Y-59715490D01*
X128354809Y-59715462D01*
X128354722Y-59715416D01*
X128354646Y-59715354D01*
X128354584Y-59715278D01*
X128354538Y-59715191D01*
X128354510Y-59715098D01*
X128354500Y-59715000D01*
X128354500Y-58895000D01*
X128354510Y-58894902D01*
X128354538Y-58894809D01*
X128354584Y-58894722D01*
X128354646Y-58894646D01*
X128354722Y-58894584D01*
X128354809Y-58894538D01*
X128354902Y-58894510D01*
X128355000Y-58894500D01*
X129901000Y-58894500D01*
X129901098Y-58894510D01*
G37*
G36*
X129901098Y-57394510D02*
G01*
X129901191Y-57394538D01*
X129901278Y-57394584D01*
X129901354Y-57394646D01*
X129901416Y-57394722D01*
X129901462Y-57394809D01*
X129901490Y-57394902D01*
X129901500Y-57395000D01*
X129901500Y-58215000D01*
X129901490Y-58215098D01*
X129901462Y-58215191D01*
X129901416Y-58215278D01*
X129901354Y-58215354D01*
X129901278Y-58215416D01*
X129901191Y-58215462D01*
X129901098Y-58215490D01*
X129901000Y-58215500D01*
X128355000Y-58215500D01*
X128354902Y-58215490D01*
X128354809Y-58215462D01*
X128354722Y-58215416D01*
X128354646Y-58215354D01*
X128354584Y-58215278D01*
X128354538Y-58215191D01*
X128354510Y-58215098D01*
X128354500Y-58215000D01*
X128354500Y-57395000D01*
X128354510Y-57394902D01*
X128354538Y-57394809D01*
X128354584Y-57394722D01*
X128354646Y-57394646D01*
X128354722Y-57394584D01*
X128354809Y-57394538D01*
X128354902Y-57394510D01*
X128355000Y-57394500D01*
X129901000Y-57394500D01*
X129901098Y-57394510D01*
G37*
D21*
X69525000Y-63305000D03*
X79685000Y-63305000D03*
D22*
X78415000Y-65845000D03*
D23*
X74605000Y-63305000D03*
D22*
X72065000Y-68385000D03*
D21*
X88575000Y-63305000D03*
X98735000Y-63305000D03*
D22*
X97465000Y-65845000D03*
D23*
X93655000Y-63305000D03*
D22*
X91115000Y-68385000D03*
D21*
X107625000Y-63305000D03*
X117785000Y-63305000D03*
D22*
X116515000Y-65845000D03*
D23*
X112705000Y-63305000D03*
D22*
X110165000Y-68385000D03*
D21*
X126675000Y-63305000D03*
X136835000Y-63305000D03*
D22*
X135565000Y-65845000D03*
D23*
X131755000Y-63305000D03*
D22*
X129215000Y-68385000D03*
D21*
X69525000Y-82355000D03*
X79685000Y-82355000D03*
D22*
X78415000Y-84895000D03*
D23*
X74605000Y-82355000D03*
D22*
X72065000Y-87435000D03*
D21*
X88575000Y-82355000D03*
X98735000Y-82355000D03*
D22*
X97465000Y-84895000D03*
D23*
X93655000Y-82355000D03*
D22*
X91115000Y-87435000D03*
D21*
X107625000Y-82355000D03*
X117785000Y-82355000D03*
D22*
X116515000Y-84895000D03*
D23*
X112705000Y-82355000D03*
D22*
X110165000Y-87435000D03*
D21*
X69525000Y-101405000D03*
X79685000Y-101405000D03*
D22*
X78415000Y-103945000D03*
D23*
X74605000Y-101405000D03*
D22*
X72065000Y-106485000D03*
D21*
X88575000Y-101405000D03*
X98735000Y-101405000D03*
D22*
X97465000Y-103945000D03*
D23*
X93655000Y-101405000D03*
D22*
X91115000Y-106485000D03*
D21*
X107625000Y-101405000D03*
X117785000Y-101405000D03*
D22*
X116515000Y-103945000D03*
D23*
X112705000Y-101405000D03*
D22*
X110165000Y-106485000D03*
D21*
X69525000Y-120455000D03*
X79685000Y-120455000D03*
D22*
X78415000Y-122995000D03*
D23*
X74605000Y-120455000D03*
D22*
X72065000Y-125535000D03*
D21*
X88575000Y-120455000D03*
X98735000Y-120455000D03*
D22*
X97465000Y-122995000D03*
D23*
X93655000Y-120455000D03*
D22*
X91115000Y-125535000D03*
D21*
X107625000Y-120455000D03*
X117785000Y-120455000D03*
D22*
X116515000Y-122995000D03*
D23*
X112705000Y-120455000D03*
D22*
X110165000Y-125535000D03*
D23*
X72223750Y-131250000D03*
X96036250Y-131250000D03*
D24*
X72223750Y-146490000D03*
X96036250Y-146490000D03*
D21*
X79050000Y-139505000D03*
X89210000Y-139505000D03*
D22*
X87940000Y-142045000D03*
D23*
X84130000Y-139505000D03*
D22*
X81590000Y-144585000D03*
D21*
X107625000Y-139505000D03*
X117785000Y-139505000D03*
D22*
X116515000Y-142045000D03*
D23*
X112705000Y-139505000D03*
D22*
X110165000Y-144585000D03*
D23*
X123500000Y-103786250D03*
X123500000Y-79973750D03*
D24*
X138740000Y-103786250D03*
X138740000Y-79973750D03*
D21*
X131755000Y-96960000D03*
X131755000Y-86800000D03*
D22*
X134295000Y-88070000D03*
D23*
X131755000Y-91880000D03*
D22*
X136835000Y-94420000D03*
D23*
X123500000Y-141886250D03*
X123500000Y-118073750D03*
D24*
X138740000Y-141886250D03*
X138740000Y-118073750D03*
D21*
X131755000Y-135060000D03*
X131755000Y-124900000D03*
D22*
X134295000Y-126170000D03*
D23*
X131755000Y-129980000D03*
D22*
X136835000Y-132520000D03*
M02*
