M48
; DRILL file {KiCad (5.1.10)-1} date 11/02/22 19:02:28
; FORMAT={-:-/ absolute / metric / decimal}
; #@! TF.CreationDate,2022-11-02T19:02:28+01:00
; #@! TF.GenerationSoftware,Kicad,Pcbnew,(5.1.10)-1
; #@! TF.FileFunction,Plated,1,2,PTH
FMAT,2
METRIC
T1C0.400
T2C0.762
T3C1.000
T4C1.020
T5C1.470
T6C1.500
T7C2.200
%
G90
G05
T1
X66.548Y-59.411
X66.548Y-90.094
X66.548Y-97.511
X66.548Y-116.561
X66.548Y-135.636
X67.31Y-78.461
X67.636Y-110.947
X68.119Y-109.78
X68.119Y-112.114
X69.286Y-109.297
X69.286Y-112.597
X70.239Y-59.301
X70.267Y-97.414
X70.267Y-99.652
X70.289Y-116.454
X70.317Y-78.379
X70.35Y-80.541
X70.453Y-109.78
X70.453Y-112.114
X70.936Y-110.947
X71.077Y-118.315
X71.183Y-61.514
X78.819Y-112.837
X78.842Y-114.859
X79.489Y-76.853
X79.525Y-72.161
X80.95Y-108.255
X81.683Y-89.125
X82.5Y-66.396
X82.983Y-65.229
X82.983Y-67.562
X83.363Y-70.18
X83.363Y-127.33
X84.15Y-64.746
X84.15Y-68.046
X85.317Y-65.229
X85.317Y-67.562
X85.8Y-66.396
X86.399Y-144.641
X89.248Y-113.967
X89.261Y-115.669
X89.319Y-78.448
X89.319Y-80.279
X95.275Y-86.868
X97.765Y-76.465
X97.772Y-80.761
X98.192Y-139.471
X98.445Y-114.986
X98.501Y-117.292
X98.675Y-138.305
X98.675Y-140.638
X99.842Y-137.821
X99.842Y-141.121
X101.009Y-138.305
X101.009Y-140.638
X101.194Y-109.474
X101.492Y-139.471
X102.413Y-72.822
X102.692Y-71.222
X103.734Y-110.515
X107.391Y-69.291
X107.391Y-71.222
X108.321Y-118.461
X108.346Y-116.462
X108.356Y-114.198
X108.511Y-78.425
X108.715Y-80.874
X108.737Y-112.497
X111.557Y-85.776
X114.757Y-86.309
X117.653Y-89.408
X118.76Y-89.449
X118.775Y-87.048
X119.558Y-112.471
X120.548Y-57.455
X120.548Y-74.066
X120.548Y-122.098
X120.548Y-131.242
X121.666Y-93.675
X123.698Y-87.96
X123.698Y-91.846
X124.587Y-92.659
X125.207Y-96.261
X125.27Y-134.351
X126.187Y-81.432
X127.31Y-134.351
X127.724Y-96.261
X130.1Y-114.122
X130.125Y-75.489
X130.583Y-112.955
X130.583Y-115.289
X130.608Y-74.322
X130.608Y-76.656
X131.75Y-112.472
X131.75Y-115.772
X131.775Y-73.839
X131.775Y-77.139
X132.917Y-112.955
X132.917Y-115.289
X132.942Y-74.322
X132.942Y-76.656
X133.4Y-114.122
X133.425Y-75.489
X134.391Y-60.935
X136.576Y-60.935
X145.517Y-84.887
T2
X146.995Y-122.275
X149.535Y-122.275
X152.075Y-122.275
X154.615Y-122.275
T3
X148.234Y-65.815
X148.234Y-80.315
X150.734Y-80.315
X153.234Y-65.815
X153.234Y-80.315
T4
X68.125Y-74.075
X68.125Y-91.855
X70.665Y-74.075
X70.665Y-91.855
X73.205Y-74.075
X73.205Y-91.855
X75.745Y-74.075
X75.745Y-91.855
X78.285Y-74.075
X78.285Y-91.855
X80.825Y-74.075
X80.825Y-91.855
X83.365Y-74.075
X83.365Y-91.855
X85.905Y-74.075
X85.905Y-91.855
X88.445Y-74.075
X88.445Y-91.855
X90.985Y-74.075
X90.985Y-91.855
X93.525Y-74.075
X93.525Y-91.855
X96.065Y-74.075
X96.065Y-91.855
X98.605Y-74.075
X98.605Y-91.855
X101.145Y-74.075
X101.145Y-91.855
X103.685Y-74.075
X103.685Y-91.855
X106.225Y-74.075
X106.225Y-91.855
X108.765Y-74.075
X108.765Y-91.855
X111.305Y-74.075
X111.305Y-91.855
X113.845Y-74.075
X113.845Y-91.855
X116.385Y-74.075
X116.385Y-91.855
T5
X72.065Y-68.385
X72.065Y-87.435
X72.065Y-106.485
X72.065Y-125.535
X78.415Y-65.845
X78.415Y-84.895
X78.415Y-103.945
X78.415Y-122.995
X81.59Y-144.585
X87.94Y-142.045
X91.115Y-68.385
X91.115Y-87.435
X91.115Y-106.485
X91.115Y-125.535
X97.465Y-65.845
X97.465Y-84.895
X97.465Y-103.945
X97.465Y-122.995
X110.165Y-68.385
X110.165Y-87.435
X110.165Y-106.485
X110.165Y-125.535
X110.165Y-144.585
X116.515Y-65.845
X116.515Y-84.895
X116.515Y-103.945
X116.515Y-122.995
X116.515Y-142.045
X129.215Y-68.385
X134.295Y-88.07
X134.295Y-126.17
X135.565Y-65.845
X136.835Y-94.42
X136.835Y-132.52
T7
X69.291Y-110.93
X84.13Y-66.396
X99.847Y-139.505
X131.755Y-75.489
X131.755Y-114.122
T6
X145.134Y-73.465G85X145.134Y-72.165
G05
X156.334Y-73.465G85X156.334Y-72.165
G05
T0
M30
