M48
; DRILL file {KiCad (5.1.10)-1} date 11/02/22 19:02:28
; FORMAT={-:-/ absolute / metric / decimal}
; #@! TF.CreationDate,2022-11-02T19:02:28+01:00
; #@! TF.GenerationSoftware,Kicad,Pcbnew,(5.1.10)-1
; #@! TF.FileFunction,NonPlated,1,2,NPTH
FMAT,2
METRIC
T1C1.750
T2C3.048
T3C3.988
%
G90
G05
T1
X69.525Y-63.305
X69.525Y-82.355
X69.525Y-101.405
X69.525Y-120.455
X79.05Y-139.505
X79.685Y-63.305
X79.685Y-82.355
X79.685Y-101.405
X79.685Y-120.455
X88.575Y-63.305
X88.575Y-82.355
X88.575Y-101.405
X88.575Y-120.455
X89.21Y-139.505
X98.735Y-63.305
X98.735Y-82.355
X98.735Y-101.405
X98.735Y-120.455
X107.625Y-63.305
X107.625Y-82.355
X107.625Y-101.405
X107.625Y-120.455
X107.625Y-139.505
X117.785Y-63.305
X117.785Y-82.355
X117.785Y-101.405
X117.785Y-120.455
X117.785Y-139.505
X126.675Y-63.305
X131.755Y-86.8
X131.755Y-96.96
X131.755Y-124.9
X131.755Y-135.06
X136.835Y-63.305
T2
X72.224Y-146.49
X96.036Y-146.49
X138.74Y-79.974
X138.74Y-103.786
X138.74Y-118.074
X138.74Y-141.886
T3
X72.224Y-131.25
X74.605Y-63.305
X74.605Y-82.355
X74.605Y-101.405
X74.605Y-120.455
X84.13Y-139.505
X93.655Y-63.305
X93.655Y-82.355
X93.655Y-101.405
X93.655Y-120.455
X96.036Y-131.25
X112.705Y-63.305
X112.705Y-82.355
X112.705Y-101.405
X112.705Y-120.455
X112.705Y-139.505
X123.5Y-79.974
X123.5Y-103.786
X123.5Y-118.074
X123.5Y-141.886
X131.755Y-63.305
X131.755Y-91.88
X131.755Y-129.98
T0
M30
