G04 #@! TF.GenerationSoftware,KiCad,Pcbnew,(5.1.10)-1*
G04 #@! TF.CreationDate,2022-11-02T19:01:58+01:00*
G04 #@! TF.ProjectId,keyboard,6b657962-6f61-4726-942e-6b696361645f,rev?*
G04 #@! TF.SameCoordinates,Original*
G04 #@! TF.FileFunction,Soldermask,Top*
G04 #@! TF.FilePolarity,Negative*
%FSLAX46Y46*%
G04 Gerber Fmt 4.6, Leading zero omitted, Abs format (unit mm)*
G04 Created by KiCad (PCBNEW (5.1.10)-1) date 2022-11-02 19:01:58*
%MOMM*%
%LPD*%
G01*
G04 APERTURE LIST*
%ADD10C,0.010000*%
%ADD11C,4.400000*%
%ADD12C,0.700000*%
%ADD13C,1.524000*%
%ADD14R,2.000000X2.000000*%
%ADD15C,2.000000*%
%ADD16R,2.000000X3.200000*%
%ADD17O,1.700000X1.700000*%
%ADD18R,1.700000X1.700000*%
%ADD19C,1.750000*%
%ADD20C,3.987800*%
%ADD21C,3.048000*%
G04 APERTURE END LIST*
D10*
G36*
X125455000Y-93630000D02*
G01*
X125455000Y-90130000D01*
X128555000Y-90130000D01*
X128555000Y-93630000D01*
X125455000Y-93630000D01*
G37*
X125455000Y-93630000D02*
X125455000Y-90130000D01*
X128555000Y-90130000D01*
X128555000Y-93630000D01*
X125455000Y-93630000D01*
G36*
X91905000Y-76055000D02*
G01*
X95405000Y-76055000D01*
X95405000Y-79155000D01*
X91905000Y-79155000D01*
X91905000Y-76055000D01*
G37*
X91905000Y-76055000D02*
X95405000Y-76055000D01*
X95405000Y-79155000D01*
X91905000Y-79155000D01*
X91905000Y-76055000D01*
G36*
X91905000Y-95105000D02*
G01*
X95405000Y-95105000D01*
X95405000Y-98205000D01*
X91905000Y-98205000D01*
X91905000Y-95105000D01*
G37*
X91905000Y-95105000D02*
X95405000Y-95105000D01*
X95405000Y-98205000D01*
X91905000Y-98205000D01*
X91905000Y-95105000D01*
G36*
X125455000Y-131730000D02*
G01*
X125455000Y-128230000D01*
X128555000Y-128230000D01*
X128555000Y-131730000D01*
X125455000Y-131730000D01*
G37*
X125455000Y-131730000D02*
X125455000Y-128230000D01*
X128555000Y-128230000D01*
X128555000Y-131730000D01*
X125455000Y-131730000D01*
G36*
X110955000Y-133205000D02*
G01*
X114455000Y-133205000D01*
X114455000Y-136305000D01*
X110955000Y-136305000D01*
X110955000Y-133205000D01*
G37*
X110955000Y-133205000D02*
X114455000Y-133205000D01*
X114455000Y-136305000D01*
X110955000Y-136305000D01*
X110955000Y-133205000D01*
G36*
X82380000Y-133205000D02*
G01*
X85880000Y-133205000D01*
X85880000Y-136305000D01*
X82380000Y-136305000D01*
X82380000Y-133205000D01*
G37*
X82380000Y-133205000D02*
X85880000Y-133205000D01*
X85880000Y-136305000D01*
X82380000Y-136305000D01*
X82380000Y-133205000D01*
G36*
X110955000Y-114155000D02*
G01*
X114455000Y-114155000D01*
X114455000Y-117255000D01*
X110955000Y-117255000D01*
X110955000Y-114155000D01*
G37*
X110955000Y-114155000D02*
X114455000Y-114155000D01*
X114455000Y-117255000D01*
X110955000Y-117255000D01*
X110955000Y-114155000D01*
G36*
X91905000Y-114155000D02*
G01*
X95405000Y-114155000D01*
X95405000Y-117255000D01*
X91905000Y-117255000D01*
X91905000Y-114155000D01*
G37*
X91905000Y-114155000D02*
X95405000Y-114155000D01*
X95405000Y-117255000D01*
X91905000Y-117255000D01*
X91905000Y-114155000D01*
G36*
X72855000Y-114155000D02*
G01*
X76355000Y-114155000D01*
X76355000Y-117255000D01*
X72855000Y-117255000D01*
X72855000Y-114155000D01*
G37*
X72855000Y-114155000D02*
X76355000Y-114155000D01*
X76355000Y-117255000D01*
X72855000Y-117255000D01*
X72855000Y-114155000D01*
G36*
X110955000Y-95105000D02*
G01*
X114455000Y-95105000D01*
X114455000Y-98205000D01*
X110955000Y-98205000D01*
X110955000Y-95105000D01*
G37*
X110955000Y-95105000D02*
X114455000Y-95105000D01*
X114455000Y-98205000D01*
X110955000Y-98205000D01*
X110955000Y-95105000D01*
G36*
X72855000Y-95105000D02*
G01*
X76355000Y-95105000D01*
X76355000Y-98205000D01*
X72855000Y-98205000D01*
X72855000Y-95105000D01*
G37*
X72855000Y-95105000D02*
X76355000Y-95105000D01*
X76355000Y-98205000D01*
X72855000Y-98205000D01*
X72855000Y-95105000D01*
G36*
X110955000Y-76055000D02*
G01*
X114455000Y-76055000D01*
X114455000Y-79155000D01*
X110955000Y-79155000D01*
X110955000Y-76055000D01*
G37*
X110955000Y-76055000D02*
X114455000Y-76055000D01*
X114455000Y-79155000D01*
X110955000Y-79155000D01*
X110955000Y-76055000D01*
G36*
X72855000Y-76055000D02*
G01*
X76355000Y-76055000D01*
X76355000Y-79155000D01*
X72855000Y-79155000D01*
X72855000Y-76055000D01*
G37*
X72855000Y-76055000D02*
X76355000Y-76055000D01*
X76355000Y-79155000D01*
X72855000Y-79155000D01*
X72855000Y-76055000D01*
G36*
X110955000Y-57005000D02*
G01*
X114455000Y-57005000D01*
X114455000Y-60105000D01*
X110955000Y-60105000D01*
X110955000Y-57005000D01*
G37*
X110955000Y-57005000D02*
X114455000Y-57005000D01*
X114455000Y-60105000D01*
X110955000Y-60105000D01*
X110955000Y-57005000D01*
G36*
X91905000Y-57005000D02*
G01*
X95405000Y-57005000D01*
X95405000Y-60105000D01*
X91905000Y-60105000D01*
X91905000Y-57005000D01*
G37*
X91905000Y-57005000D02*
X95405000Y-57005000D01*
X95405000Y-60105000D01*
X91905000Y-60105000D01*
X91905000Y-57005000D01*
G36*
X72855000Y-57005000D02*
G01*
X76355000Y-57005000D01*
X76355000Y-60105000D01*
X72855000Y-60105000D01*
X72855000Y-57005000D01*
G37*
X72855000Y-57005000D02*
X76355000Y-57005000D01*
X76355000Y-60105000D01*
X72855000Y-60105000D01*
X72855000Y-57005000D01*
G36*
X130005000Y-57005000D02*
G01*
X133505000Y-57005000D01*
X133505000Y-60105000D01*
X130005000Y-60105000D01*
X130005000Y-57005000D01*
G37*
X130005000Y-57005000D02*
X133505000Y-57005000D01*
X133505000Y-60105000D01*
X130005000Y-60105000D01*
X130005000Y-57005000D01*
D11*
X69291200Y-110930000D03*
D12*
X70936000Y-110947200D03*
X70452726Y-112113926D03*
X69286000Y-112597200D03*
X68119274Y-112113926D03*
X67636000Y-110947200D03*
X68119274Y-109780474D03*
X69286000Y-109297200D03*
X70452726Y-109780474D03*
X85316926Y-65228874D03*
X84150200Y-64745600D03*
X82983474Y-65228874D03*
X82500200Y-66395600D03*
X82983474Y-67562326D03*
X84150200Y-68045600D03*
X85316926Y-67562326D03*
X85800200Y-66395600D03*
D11*
X84130000Y-66395600D03*
D12*
X101008926Y-138304674D03*
X99842200Y-137821400D03*
X98675474Y-138304674D03*
X98192200Y-139471400D03*
X98675474Y-140638126D03*
X99842200Y-141121400D03*
X101008926Y-140638126D03*
X101492200Y-139471400D03*
D11*
X99847400Y-139505000D03*
X131755000Y-114122200D03*
D12*
X133399800Y-114122200D03*
X132916526Y-115288926D03*
X131749800Y-115772200D03*
X130583074Y-115288926D03*
X130099800Y-114122200D03*
X130583074Y-112955474D03*
X131749800Y-112472200D03*
X132916526Y-112955474D03*
X132941926Y-74322074D03*
X131775200Y-73838800D03*
X130608474Y-74322074D03*
X130125200Y-75488800D03*
X130608474Y-76655526D03*
X131775200Y-77138800D03*
X132941926Y-76655526D03*
X133425200Y-75488800D03*
D11*
X131755000Y-75488800D03*
D13*
X146995000Y-122275000D03*
X149535000Y-122275000D03*
X152075000Y-122275000D03*
X154615000Y-122275000D03*
D14*
X148234400Y-80314800D03*
D15*
X150734400Y-80314800D03*
X153234400Y-80314800D03*
D16*
X145134400Y-72814800D03*
X156334400Y-72814800D03*
D15*
X148234400Y-65814800D03*
X153234400Y-65814800D03*
D17*
X68125000Y-74075000D03*
X101145000Y-74075000D03*
X96065000Y-91855000D03*
X116385000Y-74075000D03*
X78285000Y-91855000D03*
X78285000Y-74075000D03*
X90985000Y-91855000D03*
X90985000Y-74075000D03*
X93525000Y-74075000D03*
X113845000Y-74075000D03*
D18*
X98605000Y-74075000D03*
X73205000Y-91855000D03*
D17*
X103685000Y-74075000D03*
D18*
X73205000Y-74075000D03*
D17*
X80825000Y-91855000D03*
X88445000Y-91855000D03*
D18*
X98605000Y-91855000D03*
D17*
X101145000Y-91855000D03*
X106225000Y-74075000D03*
X80825000Y-74075000D03*
D18*
X111305000Y-74075000D03*
D17*
X108765000Y-74075000D03*
X88445000Y-74075000D03*
D18*
X85905000Y-74075000D03*
D17*
X75745000Y-74075000D03*
X70665000Y-91855000D03*
X75745000Y-91855000D03*
X96065000Y-74075000D03*
X83365000Y-91855000D03*
X93525000Y-91855000D03*
X83365000Y-74075000D03*
X68125000Y-91855000D03*
D18*
X85905000Y-91855000D03*
D17*
X70665000Y-74075000D03*
X113845000Y-91855000D03*
D18*
X111305000Y-91855000D03*
D17*
X108765000Y-91855000D03*
X103685000Y-91855000D03*
X106225000Y-91855000D03*
X116385000Y-91855000D03*
D19*
X69525000Y-63305000D03*
X79685000Y-63305000D03*
D20*
X74605000Y-63305000D03*
D19*
X88575000Y-63305000D03*
X98735000Y-63305000D03*
D20*
X93655000Y-63305000D03*
D19*
X107625000Y-63305000D03*
X117785000Y-63305000D03*
D20*
X112705000Y-63305000D03*
D19*
X126675000Y-63305000D03*
X136835000Y-63305000D03*
D20*
X131755000Y-63305000D03*
D19*
X69525000Y-82355000D03*
X79685000Y-82355000D03*
D20*
X74605000Y-82355000D03*
D19*
X88575000Y-82355000D03*
X98735000Y-82355000D03*
D20*
X93655000Y-82355000D03*
D19*
X107625000Y-82355000D03*
X117785000Y-82355000D03*
D20*
X112705000Y-82355000D03*
D19*
X69525000Y-101405000D03*
X79685000Y-101405000D03*
D20*
X74605000Y-101405000D03*
D19*
X88575000Y-101405000D03*
X98735000Y-101405000D03*
D20*
X93655000Y-101405000D03*
D19*
X107625000Y-101405000D03*
X117785000Y-101405000D03*
D20*
X112705000Y-101405000D03*
D19*
X69525000Y-120455000D03*
X79685000Y-120455000D03*
D20*
X74605000Y-120455000D03*
D19*
X88575000Y-120455000D03*
X98735000Y-120455000D03*
D20*
X93655000Y-120455000D03*
D19*
X107625000Y-120455000D03*
X117785000Y-120455000D03*
D20*
X112705000Y-120455000D03*
X72223750Y-131250000D03*
X96036250Y-131250000D03*
D21*
X72223750Y-146490000D03*
X96036250Y-146490000D03*
D19*
X79050000Y-139505000D03*
X89210000Y-139505000D03*
D20*
X84130000Y-139505000D03*
D19*
X107625000Y-139505000D03*
X117785000Y-139505000D03*
D20*
X112705000Y-139505000D03*
X123500000Y-103786250D03*
X123500000Y-79973750D03*
D21*
X138740000Y-103786250D03*
X138740000Y-79973750D03*
D19*
X131755000Y-96960000D03*
X131755000Y-86800000D03*
D20*
X131755000Y-91880000D03*
X123500000Y-141886250D03*
X123500000Y-118073750D03*
D21*
X138740000Y-141886250D03*
X138740000Y-118073750D03*
D19*
X131755000Y-135060000D03*
X131755000Y-124900000D03*
D20*
X131755000Y-129980000D03*
M02*
