G04 #@! TF.GenerationSoftware,KiCad,Pcbnew,(5.1.10)-1*
G04 #@! TF.CreationDate,2022-11-02T19:01:58+01:00*
G04 #@! TF.ProjectId,keyboard,6b657962-6f61-4726-942e-6b696361645f,rev?*
G04 #@! TF.SameCoordinates,Original*
G04 #@! TF.FileFunction,Profile,NP*
%FSLAX46Y46*%
G04 Gerber Fmt 4.6, Leading zero omitted, Abs format (unit mm)*
G04 Created by KiCad (PCBNEW (5.1.10)-1) date 2022-11-02 19:01:58*
%MOMM*%
%LPD*%
G01*
G04 APERTURE LIST*
G04 #@! TA.AperFunction,Profile*
%ADD10C,0.120000*%
G04 #@! TD*
G04 #@! TA.AperFunction,Profile*
%ADD11C,0.200000*%
G04 #@! TD*
G04 APERTURE END LIST*
D10*
X128480000Y-128310000D02*
X125500000Y-128310000D01*
X125500000Y-131690000D02*
X128480000Y-131690000D01*
X128480000Y-131690000D02*
X128480000Y-128310000D01*
X125500000Y-128310000D02*
X125500000Y-131690000D01*
X128480000Y-90185000D02*
X125500000Y-90185000D01*
X125500000Y-93565000D02*
X128480000Y-93565000D01*
X128480000Y-93565000D02*
X128480000Y-90185000D01*
X125500000Y-90185000D02*
X125500000Y-93565000D01*
X85815000Y-136255000D02*
X85815000Y-133275000D01*
X82435000Y-133275000D02*
X82435000Y-136255000D01*
X82435000Y-136255000D02*
X85815000Y-136255000D01*
X85815000Y-133275000D02*
X82435000Y-133275000D01*
X111010000Y-136255000D02*
X114390000Y-136255000D01*
X111010000Y-117205000D02*
X114390000Y-117205000D01*
X91960000Y-117205000D02*
X95340000Y-117205000D01*
X72910000Y-117205000D02*
X76290000Y-117205000D01*
X111010000Y-98155000D02*
X114390000Y-98155000D01*
X91960000Y-98155000D02*
X95340000Y-98155000D01*
X72910000Y-98155000D02*
X76290000Y-98155000D01*
X111010000Y-79105000D02*
X114390000Y-79105000D01*
X91960000Y-79105000D02*
X95340000Y-79105000D01*
X72910000Y-79105000D02*
X76290000Y-79105000D01*
X130060000Y-60055000D02*
X133440000Y-60055000D01*
X111010000Y-60055000D02*
X114390000Y-60055000D01*
X91960000Y-60055000D02*
X95340000Y-60055000D01*
X114390000Y-136255000D02*
X114390000Y-133275000D01*
X114390000Y-117205000D02*
X114390000Y-114225000D01*
X95340000Y-117205000D02*
X95340000Y-114225000D01*
X76290000Y-117205000D02*
X76290000Y-114225000D01*
X114390000Y-98155000D02*
X114390000Y-95175000D01*
X95340000Y-98155000D02*
X95340000Y-95175000D01*
X76290000Y-98155000D02*
X76290000Y-95175000D01*
X114390000Y-79105000D02*
X114390000Y-76125000D01*
X95340000Y-79105000D02*
X95340000Y-76125000D01*
X76290000Y-79105000D02*
X76290000Y-76125000D01*
X133440000Y-60055000D02*
X133440000Y-57075000D01*
X114390000Y-60055000D02*
X114390000Y-57075000D01*
X95340000Y-60055000D02*
X95340000Y-57075000D01*
X111010000Y-133275000D02*
X111010000Y-136255000D01*
X111010000Y-114225000D02*
X111010000Y-117205000D01*
X91960000Y-114225000D02*
X91960000Y-117205000D01*
X72910000Y-114225000D02*
X72910000Y-117205000D01*
X111010000Y-95175000D02*
X111010000Y-98155000D01*
X91960000Y-95175000D02*
X91960000Y-98155000D01*
X72910000Y-95175000D02*
X72910000Y-98155000D01*
X111010000Y-76125000D02*
X111010000Y-79105000D01*
X91960000Y-76125000D02*
X91960000Y-79105000D01*
X72910000Y-76125000D02*
X72910000Y-79105000D01*
X130060000Y-57075000D02*
X130060000Y-60055000D01*
X111010000Y-57075000D02*
X111010000Y-60055000D01*
X91960000Y-57075000D02*
X91960000Y-60055000D01*
X114390000Y-133275000D02*
X111010000Y-133275000D01*
X114390000Y-114225000D02*
X111010000Y-114225000D01*
X95340000Y-114225000D02*
X91960000Y-114225000D01*
X76290000Y-114225000D02*
X72910000Y-114225000D01*
X114390000Y-95175000D02*
X111010000Y-95175000D01*
X95340000Y-95175000D02*
X91960000Y-95175000D01*
X76290000Y-95175000D02*
X72910000Y-95175000D01*
X114390000Y-76125000D02*
X111010000Y-76125000D01*
X95340000Y-76125000D02*
X91960000Y-76125000D01*
X76290000Y-76125000D02*
X72910000Y-76125000D01*
X133440000Y-57075000D02*
X130060000Y-57075000D01*
X114390000Y-57075000D02*
X111010000Y-57075000D01*
X95340000Y-57075000D02*
X91960000Y-57075000D01*
X76290000Y-57075000D02*
X72910000Y-57075000D01*
X76290000Y-60055000D02*
X76290000Y-57075000D01*
X72910000Y-60055000D02*
X76290000Y-60055000D01*
X72910000Y-57075000D02*
X72910000Y-60055000D01*
D11*
X65080000Y-53780000D02*
X160330000Y-53780000D01*
X160330000Y-53780000D02*
X160330000Y-149030000D01*
X160330000Y-149030000D02*
X65080000Y-149030000D01*
X65080000Y-149030000D02*
X65080000Y-53780000D01*
X65080000Y-53780000D02*
G75*
G02*
X65080000Y-53780000I0J0D01*
G01*
X141280000Y-149030000D02*
G75*
G02*
X141280000Y-149030000I0J0D01*
G01*
X65080000Y-149030000D02*
G75*
G03*
X65080000Y-149030000I0J0D01*
G01*
M02*
